<?xml version="1.0" encoding="utf-8"?>
<svg xmlns="http://www.w3.org/2000/svg">
    <defs>
        <symbol fill="currentColor" viewBox="0 0 24 24" id="alarm">
            <path
                d="M12.5 8H11v6l4.75 2.85.75-1.23-4-2.37zm4.837-6.19 4.607 3.845-1.28 1.535-4.61-3.843zm-10.674 0 1.282 1.536L3.337 7.19l-1.28-1.536zM12 4a9 9 0 1 0 .001 18.001A9 9 0 0 0 12 4zm0 16c-3.86 0-7-3.14-7-7s3.14-7 7-7 7 3.14 7 7-3.14 7-7 7z" />
        </symbol>
        <symbol fill="currentColor" viewBox="0 0 24 24" id="alarm_add">
            <path
                d="m17.337 1.81 4.607 3.845-1.28 1.535-4.61-3.843zm-10.674 0 1.282 1.536L3.337 7.19l-1.28-1.536zM12 4a9 9 0 1 0 .001 18.001A9 9 0 0 0 12 4zm0 16c-3.86 0-7-3.14-7-7s3.14-7 7-7 7 3.14 7 7-3.14 7-7 7zm1-11h-2v3H8v2h3v3h2v-3h3v-2h-3z" />
        </symbol>
        <symbol fill="currentColor" viewBox="0 0 24 24" id="album">
            <path
                d="M12 2C6.48 2 2 6.48 2 12s4.48 10 10 10 10-4.48 10-10S17.52 2 12 2zm0 18c-4.41 0-8-3.59-8-8s3.59-8 8-8 8 3.59 8 8-3.59 8-8 8zm0-12.5c-2.49 0-4.5 2.01-4.5 4.5s2.01 4.5 4.5 4.5 4.5-2.01 4.5-4.5-2.01-4.5-4.5-4.5zm0 5.5c-.55 0-1-.45-1-1s.45-1 1-1 1 .45 1 1-.45 1-1 1z" />
        </symbol>
        <symbol fill="currentColor" viewBox="0 0 24 24" id="album-filled">
            <path
                d="M12 2C6.48 2 2 6.48 2 12s4.48 10 10 10 10-4.48 10-10S17.52 2 12 2zm0 14.5c-2.49 0-4.5-2.01-4.5-4.5S9.51 7.5 12 7.5s4.5 2.01 4.5 4.5-2.01 4.5-4.5 4.5zm0-5.5c-.55 0-1 .45-1 1s.45 1 1 1 1-.45 1-1-.45-1-1-1z" />
        </symbol>
        <symbol fill="currentColor" viewBox="0 0 24 24" id="apps">
            <path
                d="M4 8h4V4H4v4zm6 12h4v-4h-4v4zm-6 0h4v-4H4v4zm0-6h4v-4H4v4zm6 0h4v-4h-4v4zm6-10v4h4V4h-4zm-6 4h4V4h-4v4zm6 6h4v-4h-4v4zm0 6h4v-4h-4v4z" />
        </symbol>
        <symbol fill="currentColor" viewBox="0 0 24 24" id="archive">
            <path
                d="m20.54 5.23-1.39-1.68C18.88 3.21 18.47 3 18 3H6c-.47 0-.88.21-1.16.55L3.46 5.23C3.17 5.57 3 6.02 3 6.5V19c0 1.1.9 2 2 2h14c1.1 0 2-.9 2-2V6.5c0-.48-.17-.93-.46-1.27zM12 17.5 6.5 12H10v-2h4v2h3.5L12 17.5zM5.12 5l.81-1h12l.94 1H5.12z" />
        </symbol>
        <symbol fill="currentColor" viewBox="0 0 24 24" id="arrow_back">
            <path d="M20 11H7.83l5.59-5.59L12 4l-8 8 8 8 1.41-1.41L7.83 13H20v-2z" />
        </symbol>
        <symbol fill="currentColor" viewBox="0 0 24 24" id="arrow_back_ios">
            <path d="M11.67 3.87 9.9 2.1 0 12l9.9 9.9 1.77-1.77L3.54 12z" />
        </symbol>
        <symbol fill="currentColor" viewBox="0 0 24 24" id="arrow_back_ios_new">
            <path d="M17.77 3.77 16 2 6 12l10 10 1.77-1.77L9.54 12z" />
        </symbol>
        <symbol fill="currentColor" viewBox="0 0 24 24" id="arrow_circle_down">
            <path
                d="M12 4c4.41 0 8 3.59 8 8s-3.59 8-8 8-8-3.59-8-8 3.59-8 8-8m0-2C6.48 2 2 6.48 2 12s4.48 10 10 10 10-4.48 10-10S17.52 2 12 2zm1 10V8h-2v4H8l4 4 4-4h-3z" />
        </symbol>
        <symbol fill="currentColor" viewBox="0 0 24 24" id="arrow_circle_left">
            <path
                d="M2 12c0 5.52 4.48 10 10 10s10-4.48 10-10S17.52 2 12 2 2 6.48 2 12zm10-1h4v2h-4v3l-4-4 4-4v3z" />
        </symbol>
        <symbol fill="currentColor" viewBox="0 0 24 24" id="arrow_circle_right">
            <path
                d="M22 12c0-5.52-4.48-10-10-10S2 6.48 2 12s4.48 10 10 10 10-4.48 10-10zm-10 1H8v-2h4V8l4 4-4 4v-3z" />
        </symbol>
        <symbol fill="currentColor" viewBox="0 0 24 24" id="arrow_circle_up">
            <path
                d="M12 20c-4.41 0-8-3.59-8-8s3.59-8 8-8 8 3.59 8 8-3.59 8-8 8m0 2c5.52 0 10-4.48 10-10S17.52 2 12 2 2 6.48 2 12s4.48 10 10 10zm-1-10v4h2v-4h3l-4-4-4 4h3z" />
        </symbol>
        <symbol fill="currentColor" viewBox="0 0 24 24" id="arrow_downward">
            <path d="m20 12-1.41-1.41L13 16.17V4h-2v12.17l-5.58-5.59L4 12l8 8 8-8z" />
        </symbol>
        <symbol fill="currentColor" viewBox="0 0 24 24" id="arrow_drop_down">
            <path d="m7 10 5 5 5-5z" />
        </symbol>
        <symbol fill="currentColor" viewBox="0 0 24 24" id="arrow_drop_down_circle">
            <path
                d="M12 2C6.48 2 2 6.48 2 12s4.48 10 10 10 10-4.48 10-10S17.52 2 12 2zm0 12-4-4h8l-4 4z" />
        </symbol>
        <symbol fill="currentColor" viewBox="0 0 24 24" id="arrow_drop_up">
            <path d="m7 14 5-5 5 5z" />
        </symbol>
        <symbol fill="currentColor" viewBox="0 0 24 24" id="arrow_forward">
            <path d="m12 4-1.41 1.41L16.17 11H4v2h12.17l-5.58 5.59L12 20l8-8z" />
        </symbol>
        <symbol fill="currentColor" viewBox="0 0 24 24" id="arrow_forward_ios">
            <path d="M6.23 20.23 8 22l10-10L8 2 6.23 3.77 14.46 12z" />
        </symbol>
        <symbol fill="currentColor" viewBox="0 0 24 24" id="arrow_left">
            <path d="m14 7-5 5 5 5V7z" />
        </symbol>
        <symbol fill="currentColor" viewBox="0 0 24 24" id="arrow_outward">
            <path d="M6 6v2h8.59L5 17.59 6.41 19 16 9.41V18h2V6z" />
        </symbol>
        <symbol fill="currentColor" viewBox="0 0 24 24" id="arrow_right">
            <path d="m10 17 5-5-5-5v10z" />
        </symbol>
        <symbol fill="currentColor" viewBox="0 0 24 24" id="arrow_right_alt">
            <path d="M16.01 11H4v2h12.01v3L20 12l-3.99-4z" />
        </symbol>
        <symbol fill="currentColor" viewBox="0 0 24 24" id="arrow_upward">
            <path d="m4 12 1.41 1.41L11 7.83V20h2V7.83l5.58 5.59L20 12l-8-8-8 8z" />
        </symbol>
        <symbol fill="currentColor" viewBox="0 0 24 24" id="bar_chart">
            <path d="M4 9h4v11H4zm12 4h4v7h-4zm-6-9h4v16h-4z" />
        </symbol>
        <symbol fill="currentColor" viewBox="0 0 24 24" id="check">
            <path d="M9 16.17 4.83 12l-1.42 1.41L9 19 21 7l-1.41-1.41z" />
        </symbol>
        <symbol fill="currentColor" viewBox="0 0 24 24" id="check_box">
            <path
                d="M19 3H5a2 2 0 0 0-2 2v14a2 2 0 0 0 2 2h14a2 2 0 0 0 2-2V5a2 2 0 0 0-2-2zm-9 14-5-5 1.41-1.41L10 14.17l7.59-7.59L19 8l-9 9z" />
        </symbol>
        <symbol fill="currentColor" viewBox="0 0 24 24" id="check_box_outline_blank">
            <path
                d="M19 5v14H5V5h14m0-2H5c-1.1 0-2 .9-2 2v14c0 1.1.9 2 2 2h14c1.1 0 2-.9 2-2V5c0-1.1-.9-2-2-2z" />
        </symbol>
        <symbol fill="currentColor" viewBox="0 0 24 24" id="check_circle">
            <path
                d="M12 2C6.48 2 2 6.48 2 12s4.48 10 10 10 10-4.48 10-10S17.52 2 12 2zm-2 15-5-5 1.41-1.41L10 14.17l7.59-7.59L19 8l-9 9z" />
        </symbol>
        <symbol fill="currentColor" viewBox="0 0 24 24" id="check_circle_outline">
            <path
                d="M16.59 7.58 10 14.17l-3.59-3.58L5 12l5 5 8-8zM12 2C6.48 2 2 6.48 2 12s4.48 10 10 10 10-4.48 10-10S17.52 2 12 2zm0 18c-4.42 0-8-3.58-8-8s3.58-8 8-8 8 3.58 8 8-3.58 8-8 8z" />
        </symbol>
        <symbol fill="currentColor" viewBox="0 0 24 24" id="checklist">
            <path
                d="M22 7h-9v2h9V7zm0 8h-9v2h9v-2zM5.54 11 2 7.46l1.41-1.41 2.12 2.12 4.24-4.24 1.41 1.41L5.54 11zm0 8L2 15.46l1.41-1.41 2.12 2.12 4.24-4.24 1.41 1.41L5.54 19z" />
        </symbol>
        <symbol fill="currentColor" viewBox="0 0 24 24" id="checklist_rtl">
            <path
                d="M11 7H2v2h9V7zm0 8H2v2h9v-2zm5.34-4L12.8 7.46l1.41-1.41 2.12 2.12 4.24-4.24L22 5.34 16.34 11zm0 8-3.54-3.54 1.41-1.41 2.12 2.12 4.24-4.24L22 13.34 16.34 19z" />
        </symbol>
        <symbol fill="currentColor" viewBox="0 0 24 24" id="chevron_left">
            <path d="M15.41 7.41 14 6l-6 6 6 6 1.41-1.41L10.83 12z" />
        </symbol>
        <symbol fill="currentColor" viewBox="0 0 24 24" id="chevron_right">
            <path d="M10 6 8.59 7.41 13.17 12l-4.58 4.59L10 18l6-6z" />
        </symbol>
        <symbol fill="currentColor" viewBox="0 0 24 24" id="circle">
            <path
                d="M12 2C6.47 2 2 6.47 2 12s4.47 10 10 10 10-4.47 10-10S17.53 2 12 2zm0 18c-4.42 0-8-3.58-8-8s3.58-8 8-8 8 3.58 8 8-3.58 8-8 8z" />
        </symbol>
        <symbol fill="currentColor" viewBox="0 0 24 24" id="circle_notifications">
            <path
                d="M12 18.5c.83 0 1.5-.67 1.5-1.5h-3c0 .83.67 1.5 1.5 1.5zM12 2C6.48 2 2 6.48 2 12s4.48 10 10 10 10-4.48 10-10S17.52 2 12 2zm0 18c-4.41 0-8-3.59-8-8s3.59-8 8-8 8 3.59 8 8-3.59 8-8 8zm4-8.61c0-2.11-1.03-3.92-3-4.39v-.5c0-.57-.43-1-1-1s-1 .43-1 1V7c-1.97.47-3 2.27-3 4.39V14H7v2h10v-2h-1v-2.61zM14 14h-4v-3c0-1.1.9-2 2-2s2 .9 2 2v3z" />
        </symbol>
        <symbol fill="currentColor" viewBox="0 0 24 24" id="clear">
            <path
                d="M19 6.41 17.59 5 12 10.59 6.41 5 5 6.41 10.59 12 5 17.59 6.41 19 12 13.41 17.59 19 19 17.59 13.41 12 19 6.41z" />
        </symbol>
        <symbol fill="currentColor" viewBox="0 0 24 24" id="clear_all">
            <path d="M5 13h14v-2H5v2zm-2 4h14v-2H3v2zM7 7v2h14V7H7z" />
        </symbol>
        <symbol fill="currentColor" viewBox="0 0 24 24" id="close">
            <path
                d="M19 6.41 17.59 5 12 10.59 6.41 5 5 6.41 10.59 12 5 17.59 6.41 19 12 13.41 17.59 19 19 17.59 13.41 12 19 6.41z" />
        </symbol>
        <symbol fill="currentColor" viewBox="0 0 24 24" id="close_fullscreen">
            <path
                d="M22 3.41 16.71 8.7 20 12h-8V4l3.29 3.29L20.59 2 22 3.41zM3.41 22l5.29-5.29L12 20v-8H4l3.29 3.29L2 20.59 3.41 22z" />
        </symbol>
        <symbol fill="currentColor" viewBox="0 0 24 24" id="cloud">
            <path
                d="M19.35 10.04A7.49 7.49 0 0 0 12 4C9.11 4 6.6 5.64 5.35 8.04A5.994 5.994 0 0 0 0 14c0 3.31 2.69 6 6 6h13c2.76 0 5-2.24 5-5 0-2.64-2.05-4.78-4.65-4.96z" />
        </symbol>
        <symbol fill="currentColor" viewBox="0 0 24 24" id="cloud_circle">
            <path
                d="M12 2C6.48 2 2 6.48 2 12s4.48 10 10 10 10-4.48 10-10S17.52 2 12 2zm4.5 14H8c-1.66 0-3-1.34-3-3s1.34-3 3-3l.14.01A3.98 3.98 0 0 1 12 7c2.21 0 4 1.79 4 4h.5a2.5 2.5 0 0 1 0 5z" />
        </symbol>
        <symbol fill="currentColor" viewBox="0 0 24 24" id="cloud_done">
            <path
                d="M19.35 10.04A7.49 7.49 0 0 0 12 4C9.11 4 6.6 5.64 5.35 8.04A5.994 5.994 0 0 0 0 14c0 3.31 2.69 6 6 6h13c2.76 0 5-2.24 5-5 0-2.64-2.05-4.78-4.65-4.96zM10 17l-3.5-3.5 1.41-1.41L10 14.17 15.18 9l1.41 1.41L10 17z" />
        </symbol>
        <symbol fill="currentColor" viewBox="0 0 24 24" id="cloud_download">
            <path
                d="M19.35 10.04A7.49 7.49 0 0 0 12 4C9.11 4 6.6 5.64 5.35 8.04A5.994 5.994 0 0 0 0 14c0 3.31 2.69 6 6 6h13c2.76 0 5-2.24 5-5 0-2.64-2.05-4.78-4.65-4.96zM17 13l-5 5-5-5h3V9h4v4h3z" />
        </symbol>
        <symbol fill="currentColor" viewBox="0 0 24 24" id="cloud_off">
            <path
                d="M19.35 10.04A7.49 7.49 0 0 0 12 4c-1.48 0-2.85.43-4.01 1.17l1.46 1.46a5.497 5.497 0 0 1 8.05 4.87v.5H19c1.66 0 3 1.34 3 3 0 1.13-.64 2.11-1.56 2.62l1.45 1.45C23.16 18.16 24 16.68 24 15c0-2.64-2.05-4.78-4.65-4.96zM3 5.27l2.75 2.74C2.56 8.15 0 10.77 0 14c0 3.31 2.69 6 6 6h11.73l2 2L21 20.73 4.27 4 3 5.27zM7.73 10l8 8H6c-2.21 0-4-1.79-4-4s1.79-4 4-4h1.73z" />
        </symbol>
        <symbol fill="currentColor" viewBox="0 0 24 24" id="cloud_queue">
            <path
                d="M19.35 10.04A7.49 7.49 0 0 0 12 4C9.11 4 6.6 5.64 5.35 8.04A5.994 5.994 0 0 0 0 14c0 3.31 2.69 6 6 6h13c2.76 0 5-2.24 5-5 0-2.64-2.05-4.78-4.65-4.96zM19 18H6c-2.21 0-4-1.79-4-4s1.79-4 4-4h.71C7.37 7.69 9.48 6 12 6c3.04 0 5.5 2.46 5.5 5.5v.5H19c1.66 0 3 1.34 3 3s-1.34 3-3 3z" />
        </symbol>
        <symbol fill="currentColor" viewBox="0 0 24 24" id="cloud_sync">
            <path
                d="M21.5 14.98c-.02 0-.03 0-.05.01A3.49 3.49 0 0 0 18 12c-1.4 0-2.6.83-3.16 2.02A2.988 2.988 0 0 0 12 17c0 1.66 1.34 3 3 3l6.5-.02a2.5 2.5 0 0 0 0-5zM10 4.26v2.09C7.67 7.18 6 9.39 6 12c0 1.77.78 3.34 2 4.44V14h2v6H4v-2h2.73A7.942 7.942 0 0 1 4 12c0-3.73 2.55-6.85 6-7.74zM20 6h-2.73a7.98 7.98 0 0 1 2.66 5h-2.02c-.23-1.36-.93-2.55-1.91-3.44V10h-2V4h6v2z" />
        </symbol>
        <symbol fill="currentColor" viewBox="0 0 24 24" id="cloud_upload">
            <path
                d="M19.35 10.04A7.49 7.49 0 0 0 12 4C9.11 4 6.6 5.64 5.35 8.04A5.994 5.994 0 0 0 0 14c0 3.31 2.69 6 6 6h13c2.76 0 5-2.24 5-5 0-2.64-2.05-4.78-4.65-4.96zM14 13v4h-4v-4H7l5-5 5 5h-3z" />
        </symbol>
        <symbol fill="currentColor" viewBox="0 0 24 24" id="edit">
            <path
                d="M3 17.25V21h3.75L17.81 9.94l-3.75-3.75L3 17.25zM20.71 7.04a.996.996 0 0 0 0-1.41l-2.34-2.34a.996.996 0 0 0-1.41 0l-1.83 1.83 3.75 3.75 1.83-1.83z" />
        </symbol>
        <symbol fill="currentColor" viewBox="0 0 24 24" id="edit_attributes">
            <path
                d="M17.63 7H6.37C3.96 7 2 9.24 2 12s1.96 5 4.37 5h11.26c2.41 0 4.37-2.24 4.37-5s-1.96-5-4.37-5zM7.24 14.46l-2.57-2.57.7-.7 1.87 1.87 3.52-3.52.7.7-4.22 4.22z" />
        </symbol>
        <symbol fill="currentColor" viewBox="0 0 24 24" id="edit_calendar">
            <path
                d="M12 22H5a2 2 0 0 1-2-2l.01-14c0-1.1.88-2 1.99-2h1V2h2v2h8V2h2v2h1c1.1 0 2 .9 2 2v6h-2v-2H5v10h7v2zm10.13-5.01.71-.71a.996.996 0 0 0 0-1.41l-.71-.71a.996.996 0 0 0-1.41 0l-.71.71 2.12 2.12zm-.71.71-5.3 5.3H14v-2.12l5.3-5.3 2.12 2.12z" />
        </symbol>
        <symbol fill="currentColor" viewBox="0 0 24 24" id="edit_location">
            <path
                d="M12 2C8.14 2 5 5.14 5 9c0 5.25 7 13 7 13s7-7.75 7-13c0-3.86-3.14-7-7-7zm-1.56 10H9v-1.44l3.35-3.34 1.43 1.43L10.44 12zm4.45-4.45-.7.7-1.44-1.44.7-.7a.38.38 0 0 1 .54 0l.9.9c.15.15.15.39 0 .54z" />
        </symbol>
        <symbol fill="currentColor" viewBox="0 0 24 24" id="edit_location_alt">
            <path
                d="M13.95 13H9V8.05l5.61-5.61A8.17 8.17 0 0 0 12 2c-4.2 0-8 3.22-8 8.2 0 3.32 2.67 7.25 8 11.8 5.33-4.55 8-8.48 8-11.8 0-1.01-.16-1.94-.45-2.8l-5.6 5.6z" />
            <path
                d="M11 11h2.12l6.16-6.16-2.12-2.12L11 8.88zm9.71-9L20 1.29c-.2-.19-.45-.29-.71-.29-.13 0-.48.07-.71.29l-.72.72 2.12 2.12.72-.72c.4-.39.4-1.02.01-1.41z" />
        </symbol>
        <symbol fill="currentColor" viewBox="0 0 24 24" id="edit_note">
            <path
                d="M3 10h11v2H3v-2zm0-2h11V6H3v2zm0 8h7v-2H3v2zm15.01-3.13.71-.71a.996.996 0 0 1 1.41 0l.71.71c.39.39.39 1.02 0 1.41l-.71.71-2.12-2.12zm-.71.71-5.3 5.3V21h2.12l5.3-5.3-2.12-2.12z" />
        </symbol>
        <symbol fill="currentColor" viewBox="0 0 24 24" id="edit_notifications">
            <path
                d="m17.58 6.25 1.77 1.77L14.37 13H12.6v-1.77l4.98-4.98zm3.27-.44-1.06-1.06c-.2-.2-.51-.2-.71 0l-.85.85L20 7.37l.85-.85c.2-.2.2-.52 0-.71zM18 12.2V17h2v2H4v-2h2v-7c0-2.79 1.91-5.14 4.5-5.8v-.7c0-.83.67-1.5 1.5-1.5s1.5.67 1.5 1.5v.7c.82.21 1.57.59 2.21 1.09L10.6 10.4V15h4.6l2.8-2.8zM10 20h4c0 1.1-.9 2-2 2s-2-.9-2-2z" />
        </symbol>
        <symbol fill="currentColor" viewBox="0 0 24 24" id="edit_off">
            <path
                d="m12.126 8.125 1.937-1.937 3.747 3.747-1.937 1.938zM20.71 5.63l-2.34-2.34a1 1 0 0 0-1.41 0l-1.83 1.83 3.75 3.75L20.71 7a1 1 0 0 0 0-1.37zM2 5l6.63 6.63L3 17.25V21h3.75l5.63-5.62L18 21l2-2L4 3 2 5z" />
        </symbol>
        <symbol fill="currentColor" viewBox="0 0 24 24" id="edit_road">
            <path
                d="M18 4h-2v7.9l2-2zM4 4h2v16H4zm6 0h2v4h-2zm0 6h2v4h-2zm0 6h2v4h-2zm12.56-3.41-1.15-1.15a1.49 1.49 0 0 0-2.12 0L14 16.73V20h3.27l5.29-5.29c.59-.59.59-1.54 0-2.12zm-5.98 5.86h-1.03v-1.03L19 13.97 20.03 15l-3.45 3.45z" />
        </symbol>
        <symbol fill="currentColor" viewBox="0 0 24 24" id="extension">
            <path
                d="M20.5 11H19V7c0-1.1-.9-2-2-2h-4V3.5a2.5 2.5 0 0 0-5 0V5H4c-1.1 0-1.99.9-1.99 2v3.8H3.5c1.49 0 2.7 1.21 2.7 2.7s-1.21 2.7-2.7 2.7H2V20c0 1.1.9 2 2 2h3.8v-1.5c0-1.49 1.21-2.7 2.7-2.7 1.49 0 2.7 1.21 2.7 2.7V22H17c1.1 0 2-.9 2-2v-4h1.5a2.5 2.5 0 0 0 0-5z" />
        </symbol>
        <symbol fill="currentColor" viewBox="0 0 24 24" id="extension_off">
            <path
                d="m19.78 22.61-1.63-1.63c-.05 0-.1.02-.15.02h-3.8c0-2.71-2.16-3-2.7-3s-2.7.29-2.7 3H5c-1.1 0-2-.9-2-2v-3.8c2.71 0 3-2.16 3-2.7s-.3-2.7-2.99-2.7V6c0-.05.02-.09.02-.14L1.39 4.22 2.8 2.81l18.38 18.38-1.4 1.42zm.22-5.44V15a2.5 2.5 0 0 0 0-5V6c0-1.1-.9-2-2-2h-4a2.5 2.5 0 0 0-5 0H6.83L20 17.17z" />
        </symbol>
        <symbol fill="currentColor" viewBox="0 0 24 24" id="file_copy">
            <path
                d="M16 1H4c-1.1 0-2 .9-2 2v14h2V3h12V1zm-1 4 6 6v10c0 1.1-.9 2-2 2H7.99C6.89 23 6 22.1 6 21l.01-14c0-1.1.89-2 1.99-2h7zm-1 7h5.5L14 6.5V12z" />
        </symbol>
        <symbol fill="currentColor" viewBox="0 0 24 24" id="file_download">
            <path d="M19 9h-4V3H9v6H5l7 7 7-7zM5 18v2h14v-2H5z" />
        </symbol>
        <symbol fill="currentColor" viewBox="0 0 24 24" id="file_download_done">
            <path d="M5 18h14v2H5v-2zm4.6-2.7L5 10.7l2-1.9 2.6 2.6L17 4l2 2-9.4 9.3z" />
        </symbol>
        <symbol fill="currentColor" viewBox="0 0 24 24" id="file_download_off">
            <path
                d="M9 6.17V3h6v6h4l-3.59 3.59L9 6.17zm12.19 15.02L2.81 2.81 1.39 4.22 6.17 9H5l7 7 .59-.59L15.17 18H5v2h12.17l2.61 2.61 1.41-1.42z" />
        </symbol>
        <symbol fill="currentColor" viewBox="0 0 24 24" id="file_open">
            <path
                d="M14 2H6c-1.1 0-2 .9-2 2v16c0 1.1.89 2 1.99 2H15v-8h5V8l-6-6zm-1 7V3.5L18.5 9H13zm4 12.66V16h5.66v2h-2.24l2.95 2.95-1.41 1.41L19 19.41v2.24h-2z" />
        </symbol>
        <symbol fill="currentColor" viewBox="0 0 24 24" id="file_present">
            <path
                d="M15 2H6c-1.1 0-2 .9-2 2v16c0 1.1.9 2 2 2h12c1.1 0 2-.9 2-2V7l-5-5zM6 20V4h8v4h4v12H6zm10-10v5c0 2.21-1.79 4-4 4s-4-1.79-4-4V8.5a2.5 2.5 0 0 1 2.76-2.49c1.3.13 2.24 1.32 2.24 2.63V15h-2V8.5c0-.28-.22-.5-.5-.5s-.5.22-.5.5V15c0 1.1.9 2 2 2s2-.9 2-2v-5h2z" />
        </symbol>
        <symbol fill="currentColor" viewBox="0 0 24 24" id="file_upload">
            <path d="M9 16h6v-6h4l-7-7-7 7h4zm-4 2h14v2H5z" />
        </symbol>
        <symbol fill="currentColor" viewBox="0 0 24 24" id="filter">
            <path
                d="m15.96 10.29-2.75 3.54-1.96-2.36L8.5 15h11l-3.54-4.71zM3 5H1v16c0 1.1.9 2 2 2h16v-2H3V5zm18-4H7c-1.1 0-2 .9-2 2v14c0 1.1.9 2 2 2h14c1.1 0 2-.9 2-2V3c0-1.1-.9-2-2-2zm0 16H7V3h14v14z" />
        </symbol>
        <symbol fill="currentColor" viewBox="0 0 24 24" id="filter_1">
            <path
                d="M3 5H1v16c0 1.1.9 2 2 2h16v-2H3V5zm11 10h2V5h-4v2h2v8zm7-14H7c-1.1 0-2 .9-2 2v14c0 1.1.9 2 2 2h14c1.1 0 2-.9 2-2V3c0-1.1-.9-2-2-2zm0 16H7V3h14v14z" />
        </symbol>
        <symbol fill="currentColor" viewBox="0 0 24 24" id="filter_2">
            <path
                d="M3 5H1v16c0 1.1.9 2 2 2h16v-2H3V5zm18-4H7c-1.1 0-2 .9-2 2v14c0 1.1.9 2 2 2h14c1.1 0 2-.9 2-2V3c0-1.1-.9-2-2-2zm0 16H7V3h14v14zm-4-4h-4v-2h2a2 2 0 0 0 2-2V7a2 2 0 0 0-2-2h-4v2h4v2h-2a2 2 0 0 0-2 2v4h6v-2z" />
        </symbol>
        <symbol fill="currentColor" viewBox="0 0 24 24" id="filter_3">
            <path
                d="M21 1H7c-1.1 0-2 .9-2 2v14c0 1.1.9 2 2 2h14c1.1 0 2-.9 2-2V3c0-1.1-.9-2-2-2zm0 16H7V3h14v14zM3 5H1v16c0 1.1.9 2 2 2h16v-2H3V5zm14 8v-1.5c0-.83-.67-1.5-1.5-1.5.83 0 1.5-.67 1.5-1.5V7a2 2 0 0 0-2-2h-4v2h4v2h-2v2h2v2h-4v2h4a2 2 0 0 0 2-2z" />
        </symbol>
        <symbol fill="currentColor" viewBox="0 0 24 24" id="filter_4">
            <path
                d="M3 5H1v16c0 1.1.9 2 2 2h16v-2H3V5zm12 10h2V5h-2v4h-2V5h-2v6h4v4zm6-14H7c-1.1 0-2 .9-2 2v14c0 1.1.9 2 2 2h14c1.1 0 2-.9 2-2V3c0-1.1-.9-2-2-2zm0 16H7V3h14v14z" />
        </symbol>
        <symbol fill="currentColor" viewBox="0 0 24 24" id="filter_5">
            <path
                d="M21 1H7c-1.1 0-2 .9-2 2v14c0 1.1.9 2 2 2h14c1.1 0 2-.9 2-2V3c0-1.1-.9-2-2-2zm0 16H7V3h14v14zM3 5H1v16c0 1.1.9 2 2 2h16v-2H3V5zm14 8v-2a2 2 0 0 0-2-2h-2V7h4V5h-6v6h4v2h-4v2h4a2 2 0 0 0 2-2z" />
        </symbol>
        <symbol fill="currentColor" viewBox="0 0 24 24" id="filter_6">
            <path
                d="M3 5H1v16c0 1.1.9 2 2 2h16v-2H3V5zm18-4H7c-1.1 0-2 .9-2 2v14c0 1.1.9 2 2 2h14c1.1 0 2-.9 2-2V3c0-1.1-.9-2-2-2zm0 16H7V3h14v14zm-8-2h2a2 2 0 0 0 2-2v-2a2 2 0 0 0-2-2h-2V7h4V5h-4a2 2 0 0 0-2 2v6a2 2 0 0 0 2 2zm0-4h2v2h-2v-2z" />
        </symbol>
        <symbol fill="currentColor" viewBox="0 0 24 24" id="filter_7">
            <path
                d="M3 5H1v16c0 1.1.9 2 2 2h16v-2H3V5zm18-4H7c-1.1 0-2 .9-2 2v14c0 1.1.9 2 2 2h14c1.1 0 2-.9 2-2V3c0-1.1-.9-2-2-2zm0 16H7V3h14v14zm-8-2 4-8V5h-6v2h4l-4 8h2z" />
        </symbol>
        <symbol fill="currentColor" viewBox="0 0 24 24" id="filter_8">
            <path
                d="M3 5H1v16c0 1.1.9 2 2 2h16v-2H3V5zm18-4H7c-1.1 0-2 .9-2 2v14c0 1.1.9 2 2 2h14c1.1 0 2-.9 2-2V3c0-1.1-.9-2-2-2zm0 16H7V3h14v14zm-8-2h2a2 2 0 0 0 2-2v-1.5c0-.83-.67-1.5-1.5-1.5.83 0 1.5-.67 1.5-1.5V7a2 2 0 0 0-2-2h-2a2 2 0 0 0-2 2v1.5c0 .83.67 1.5 1.5 1.5-.83 0-1.5.67-1.5 1.5V13a2 2 0 0 0 2 2zm0-8h2v2h-2V7zm0 4h2v2h-2v-2z" />
        </symbol>
        <symbol fill="currentColor" viewBox="0 0 24 24" id="filter_9">
            <path
                d="M3 5H1v16c0 1.1.9 2 2 2h16v-2H3V5zm18-4H7c-1.1 0-2 .9-2 2v14c0 1.1.9 2 2 2h14c1.1 0 2-.9 2-2V3c0-1.1-.9-2-2-2zm0 16H7V3h14v14zM15 5h-2a2 2 0 0 0-2 2v2a2 2 0 0 0 2 2h2v2h-4v2h4a2 2 0 0 0 2-2V7a2 2 0 0 0-2-2zm0 4h-2V7h2v2z" />
        </symbol>
        <symbol fill="currentColor" viewBox="0 0 24 24" id="filter_9_plus">
            <path
                d="M3 5H1v16c0 1.1.9 2 2 2h16v-2H3V5zm11 7V8a2 2 0 0 0-2-2h-1a2 2 0 0 0-2 2v1a2 2 0 0 0 2 2h1v1H9v2h3a2 2 0 0 0 2-2zm-3-3V8h1v1h-1zm10-8H7c-1.1 0-2 .9-2 2v14c0 1.1.9 2 2 2h14c1.1 0 2-.9 2-2V3c0-1.1-.9-2-2-2zm0 8h-2V7h-2v2h-2v2h2v2h2v-2h2v6H7V3h14v6z" />
        </symbol>
        <symbol fill="currentColor" viewBox="0 0 24 24" id="filter_alt">
            <path
                d="M4.25 5.61C6.27 8.2 10 13 10 13v6c0 .55.45 1 1 1h2c.55 0 1-.45 1-1v-6s3.72-4.8 5.74-7.39A.998.998 0 0 0 18.95 4H5.04c-.83 0-1.3.95-.79 1.61z" />
        </symbol>
        <symbol fill="currentColor" viewBox="0 0 24 24" id="filter_alt_off">
            <path
                d="M19.79 5.61A.998.998 0 0 0 19 4H6.83l7.97 7.97 4.99-6.36zM2.81 2.81 1.39 4.22 10 13v6c0 .55.45 1 1 1h2c.55 0 1-.45 1-1v-2.17l5.78 5.78 1.41-1.41L2.81 2.81z" />
        </symbol>
        <symbol fill="currentColor" viewBox="0 0 24 24" id="filter_b_and_w">
            <path
                d="M19 3H5c-1.1 0-2 .9-2 2v14c0 1.1.9 2 2 2h14c1.1 0 2-.9 2-2V5c0-1.1-.9-2-2-2zm0 16-7-8v8H5l7-8V5h7v14z" />
        </symbol>
        <symbol fill="currentColor" viewBox="0 0 24 24" id="filter_center_focus">
            <path
                d="M5 15H3v4c0 1.1.9 2 2 2h4v-2H5v-4zM5 5h4V3H5c-1.1 0-2 .9-2 2v4h2V5zm14-2h-4v2h4v4h2V5c0-1.1-.9-2-2-2zm0 16h-4v2h4c1.1 0 2-.9 2-2v-4h-2v4zM12 9c-1.66 0-3 1.34-3 3s1.34 3 3 3 3-1.34 3-3-1.34-3-3-3z" />
        </symbol>
        <symbol fill="currentColor" viewBox="0 0 24 24" id="filter_drama">
            <path
                d="M19.35 10.04A7.49 7.49 0 0 0 12 4a7.48 7.48 0 0 0-6.64 4.04A5.996 5.996 0 0 0 0 14c0 3.31 2.69 6 6 6h13c2.76 0 5-2.24 5-5 0-2.64-2.05-4.78-4.65-4.96zM19 18H6c-2.21 0-4-1.79-4-4s1.79-4 4-4 4 1.79 4 4h2c0-2.76-1.86-5.08-4.4-5.78C8.61 6.88 10.2 6 12 6c3.03 0 5.5 2.47 5.5 5.5v.5H19c1.65 0 3 1.35 3 3s-1.35 3-3 3z" />
        </symbol>
        <symbol fill="currentColor" viewBox="0 0 24 24" id="filter_frames">
            <path
                d="M20 4h-4l-4-4-4 4H4c-1.1 0-2 .9-2 2v14c0 1.1.9 2 2 2h16c1.1 0 2-.9 2-2V6c0-1.1-.9-2-2-2zm0 16H4V6h4.52l3.52-3.5L15.52 6H20v14zM18 8H6v10h12" />
        </symbol>
        <symbol fill="currentColor" viewBox="0 0 24 24" id="filter_hdr">
            <path d="m14 6-3.75 5 2.85 3.8-1.6 1.2C9.81 13.75 7 10 7 10l-6 8h22L14 6z" />
        </symbol>
        <symbol fill="currentColor" viewBox="0 0 24 24" id="filter_list">
            <path d="M10 18h4v-2h-4v2zM3 6v2h18V6H3zm3 7h12v-2H6v2z" />
        </symbol>
        <symbol fill="currentColor" viewBox="0 0 24 24" id="filter_list_off">
            <path
                d="M10.83 8H21V6H8.83l2 2zm5 5H18v-2h-4.17l2 2zM14 16.83V18h-4v-2h3.17l-3-3H6v-2h2.17l-3-3H3V6h.17L1.39 4.22 2.8 2.81l18.38 18.38-1.41 1.41L14 16.83z" />
        </symbol>
        <symbol fill="currentColor" viewBox="0 0 24 24" id="filter_none">
            <path
                d="M3 5H1v16c0 1.1.9 2 2 2h16v-2H3V5zm18-4H7c-1.1 0-2 .9-2 2v14c0 1.1.9 2 2 2h14c1.1 0 2-.9 2-2V3c0-1.1-.9-2-2-2zm0 16H7V3h14v14z" />
        </symbol>
        <symbol fill="currentColor" viewBox="0 0 24 24" id="filter_tilt_shift">
            <path
                d="M11 4.07V2.05c-2.01.2-3.84 1-5.32 2.21L7.1 5.69A7.941 7.941 0 0 1 11 4.07zm7.32.19A9.949 9.949 0 0 0 13 2.05v2.02c1.46.18 2.79.76 3.9 1.62l1.42-1.43zM19.93 11h2.02c-.2-2.01-1-3.84-2.21-5.32L18.31 7.1a7.941 7.941 0 0 1 1.62 3.9zM5.69 7.1 4.26 5.68A9.949 9.949 0 0 0 2.05 11h2.02c.18-1.46.76-2.79 1.62-3.9zM4.07 13H2.05c.2 2.01 1 3.84 2.21 5.32l1.43-1.43A7.868 7.868 0 0 1 4.07 13zM15 12c0-1.66-1.34-3-3-3s-3 1.34-3 3 1.34 3 3 3 3-1.34 3-3zm3.31 4.9 1.43 1.43a9.981 9.981 0 0 0 2.21-5.32h-2.02a7.945 7.945 0 0 1-1.62 3.89zM13 19.93v2.02c2.01-.2 3.84-1 5.32-2.21l-1.43-1.43c-1.1.86-2.43 1.44-3.89 1.62zm-7.32-.19A9.981 9.981 0 0 0 11 21.95v-2.02a7.941 7.941 0 0 1-3.9-1.62l-1.42 1.43z" />
        </symbol>
        <symbol fill="currentColor" viewBox="0 0 24 24" id="filter_vintage">
            <path
                d="M18.7 12.4a6.06 6.06 0 0 0-.86-.4c.29-.11.58-.24.86-.4a6.012 6.012 0 0 0 3-5.19 6.007 6.007 0 0 0-6 0c-.28.16-.54.35-.78.54.05-.31.08-.63.08-.95 0-2.22-1.21-4.15-3-5.19C10.21 1.85 9 3.78 9 6c0 .32.03.64.08.95-.24-.2-.5-.39-.78-.55a6.008 6.008 0 0 0-6 0 5.97 5.97 0 0 0 3 5.19c.28.16.57.29.86.4-.29.11-.58.24-.86.4a6.012 6.012 0 0 0-3 5.19 6.007 6.007 0 0 0 6 0c.28-.16.54-.35.78-.54-.05.32-.08.64-.08.96 0 2.22 1.21 4.15 3 5.19 1.79-1.04 3-2.97 3-5.19 0-.32-.03-.64-.08-.95.24.2.5.38.78.54a6.008 6.008 0 0 0 6 0 6.012 6.012 0 0 0-3-5.19zM12 16c-2.21 0-4-1.79-4-4s1.79-4 4-4 4 1.79 4 4-1.79 4-4 4z" />
        </symbol>
        <symbol fill="currentColor" viewBox="0 0 24 24" id="folder">
            <path
                d="M10 4H4c-1.1 0-1.99.9-1.99 2L2 18c0 1.1.9 2 2 2h16c1.1 0 2-.9 2-2V8c0-1.1-.9-2-2-2h-8l-2-2z" />
        </symbol>
        <symbol fill="currentColor" viewBox="0 0 24 24" id="folder_copy">
            <path d="M3 6H1v13c0 1.1.9 2 2 2h17v-2H3V6z" />
            <path
                d="M21 4h-7l-2-2H7c-1.1 0-1.99.9-1.99 2L5 15c0 1.1.9 2 2 2h14c1.1 0 2-.9 2-2V6c0-1.1-.9-2-2-2z" />
        </symbol>
        <symbol fill="currentColor" viewBox="0 0 24 24" id="folder_delete">
            <path
                d="M22 8v10c0 1.1-.9 2-2 2H4c-1.1 0-2-.9-2-2l.01-12c0-1.1.89-2 1.99-2h6l2 2h8c1.1 0 2 .9 2 2zm-5.5 2V9h-2v1H12v1.5h1v4c0 .83.67 1.5 1.5 1.5h2c.83 0 1.5-.67 1.5-1.5v-4h1V10h-2.5zm0 5.5h-2v-4h2v4z" />
        </symbol>
        <symbol fill="currentColor" viewBox="0 0 24 24" id="folder_off">
            <path
                d="M20 6h-8l-2-2H6.83l14.93 14.93c.15-.28.24-.59.24-.93V8c0-1.1-.9-2-2-2zM2.1 2.1.69 3.51l1.56 1.56c-.15.28-.24.59-.24.93L2 18c0 1.1.9 2 2 2h13.17l3.31 3.31 1.41-1.41L2.1 2.1z" />
        </symbol>
        <symbol fill="currentColor" viewBox="0 0 24 24" id="folder_open">
            <path
                d="M20 6h-8l-2-2H4c-1.1 0-1.99.9-1.99 2L2 18c0 1.1.9 2 2 2h16c1.1 0 2-.9 2-2V8c0-1.1-.9-2-2-2zm0 12H4V8h16v10z" />
        </symbol>
        <symbol fill="currentColor" viewBox="0 0 24 24" id="folder_shared">
            <path
                d="M20 6h-8l-2-2H4c-1.1 0-1.99.9-1.99 2L2 18c0 1.1.9 2 2 2h16c1.1 0 2-.9 2-2V8c0-1.1-.9-2-2-2zm-5 3c1.1 0 2 .9 2 2s-.9 2-2 2-2-.9-2-2 .9-2 2-2zm4 8h-8v-1c0-1.33 2.67-2 4-2s4 .67 4 2v1z" />
        </symbol>
        <symbol fill="currentColor" viewBox="0 0 24 24" id="folder_special">
            <path
                d="M20 6h-8l-2-2H4c-1.1 0-2 .9-2 2v12c0 1.1.9 2 2 2h16c1.1 0 2-.9 2-2V8c0-1.1-.9-2-2-2zm-2.06 11L15 15.28 12.06 17l.78-3.33-2.59-2.24 3.41-.29L15 8l1.34 3.14 3.41.29-2.59 2.24.78 3.33z" />
        </symbol>
        <symbol fill="currentColor" viewBox="0 0 24 24" id="folder_zip">
            <path
                d="M20 6h-8l-2-2H4c-1.1 0-1.99.9-1.99 2L2 18c0 1.1.9 2 2 2h16c1.1 0 2-.9 2-2V8c0-1.1-.9-2-2-2zm-2 6h-2v2h2v2h-2v2h-2v-2h2v-2h-2v-2h2v-2h-2V8h2v2h2v2z" />
        </symbol>
        <symbol fill="currentColor" viewBox="0 0 24 24" id="fork_left">
            <path
                d="M9.41 15.59 8 17l-4-4 4-4 1.41 1.41L7.83 12c1.51-.33 3.73.08 5.17 1.36V6.83l-1.59 1.59L10 7l4-4 4 4-1.41 1.41L15 6.83V21h-2v-4c-.73-2.58-3.07-3.47-5.17-3l1.58 1.59z" />
        </symbol>
        <symbol fill="currentColor" viewBox="0 0 24 24" id="fork_right">
            <path
                d="M14.59 15.59 16 17l4-4-4-4-1.41 1.41L16.17 12c-1.51-.33-3.73.08-5.17 1.36V6.83l1.59 1.59L14 7l-4-4-4 4 1.41 1.41L9 6.83V21h2v-4c.73-2.58 3.07-3.47 5.17-3l-1.58 1.59z" />
        </symbol>
        <symbol fill="currentColor" viewBox="0 0 24 24" id="format_align_center">
            <path d="M7 15v2h10v-2H7zm-4 6h18v-2H3v2zm0-8h18v-2H3v2zm4-6v2h10V7H7zM3 3v2h18V3H3z" />
        </symbol>
        <symbol fill="currentColor" viewBox="0 0 24 24" id="format_align_justify">
            <path d="M3 21h18v-2H3v2zm0-4h18v-2H3v2zm0-4h18v-2H3v2zm0-4h18V7H3v2zm0-6v2h18V3H3z" />
        </symbol>
        <symbol fill="currentColor" viewBox="0 0 24 24" id="format_align_left">
            <path d="M15 15H3v2h12v-2zm0-8H3v2h12V7zM3 13h18v-2H3v2zm0 8h18v-2H3v2zM3 3v2h18V3H3z" />
        </symbol>
        <symbol fill="currentColor" viewBox="0 0 24 24" id="format_align_right">
            <path d="M3 21h18v-2H3v2zm6-4h12v-2H9v2zm-6-4h18v-2H3v2zm6-4h12V7H9v2zM3 3v2h18V3H3z" />
        </symbol>
        <symbol fill="currentColor" viewBox="0 0 24 24" id="format_bold">
            <path
                d="M15.6 10.79c.97-.67 1.65-1.77 1.65-2.79 0-2.26-1.75-4-4-4H7v14h7.04c2.09 0 3.71-1.7 3.71-3.79 0-1.52-.86-2.82-2.15-3.42zM10 6.5h3c.83 0 1.5.67 1.5 1.5s-.67 1.5-1.5 1.5h-3v-3zm3.5 9H10v-3h3.5c.83 0 1.5.67 1.5 1.5s-.67 1.5-1.5 1.5z" />
        </symbol>
        <symbol fill="currentColor" viewBox="0 0 24 24" id="format_clear">
            <path
                d="M3.27 5 2 6.27l6.97 6.97L6.5 19h3l1.57-3.66L16.73 21 18 19.73 3.55 5.27 3.27 5zM6 5v.18L8.82 8h2.4l-.72 1.68 2.1 2.1L14.21 8H20V5H6z" />
        </symbol>
        <symbol fill="currentColor" viewBox="0 0 24 24" id="format_color_fill">
            <path
                d="M16.56 8.94 7.62 0 6.21 1.41l2.38 2.38-5.15 5.15a1.49 1.49 0 0 0 0 2.12l5.5 5.5c.29.29.68.44 1.06.44s.77-.15 1.06-.44l5.5-5.5c.59-.58.59-1.53 0-2.12zM5.21 10 10 5.21 14.79 10H5.21zM19 11.5s-2 2.17-2 3.5c0 1.1.9 2 2 2s2-.9 2-2c0-1.33-2-3.5-2-3.5zM2 20h20v4H2v-4z" />
        </symbol>
        <symbol fill="currentColor" viewBox="0 0 24 24" id="format_color_reset">
            <path
                d="M18 14c0-4-6-10.8-6-10.8s-1.33 1.51-2.73 3.52l8.59 8.59c.09-.42.14-.86.14-1.31zm-.88 3.12L12.5 12.5 5.27 5.27 4 6.55l3.32 3.32C6.55 11.32 6 12.79 6 14c0 3.31 2.69 6 6 6 1.52 0 2.9-.57 3.96-1.5l2.63 2.63 1.27-1.27-2.74-2.74z" />
        </symbol>
        <symbol fill="currentColor" viewBox="0 0 24 24" id="format_color_text">
            <path
                d="M2 20h20v4H2v-4zm3.49-3h2.42l1.27-3.58h5.65L16.09 17h2.42L13.25 3h-2.5L5.49 17zm4.42-5.61 2.03-5.79h.12l2.03 5.79H9.91z" />
        </symbol>
        <symbol fill="currentColor" viewBox="0 0 24 24" id="format_indent_decrease">
            <path
                d="M11 17h10v-2H11v2zm-8-5 4 4V8l-4 4zm0 9h18v-2H3v2zM3 3v2h18V3H3zm8 6h10V7H11v2zm0 4h10v-2H11v2z" />
        </symbol>
        <symbol fill="currentColor" viewBox="0 0 24 24" id="format_indent_increase">
            <path
                d="M3 21h18v-2H3v2zM3 8v8l4-4-4-4zm8 9h10v-2H11v2zM3 3v2h18V3H3zm8 6h10V7H11v2zm0 4h10v-2H11v2z" />
        </symbol>
        <symbol fill="currentColor" viewBox="0 0 24 24" id="format_italic">
            <path d="M10 4v3h2.21l-3.42 8H6v3h8v-3h-2.21l3.42-8H18V4z" />
        </symbol>
        <symbol fill="currentColor" viewBox="0 0 24 24" id="format_line_spacing">
            <path
                d="M6 7h2.5L5 3.5 1.5 7H4v10H1.5L5 20.5 8.5 17H6V7zm4-2v2h12V5H10zm0 14h12v-2H10v2zm0-6h12v-2H10v2z" />
        </symbol>
        <symbol fill="currentColor" viewBox="0 0 24 24" id="format_list_bulleted">
            <path
                d="M4 10.5c-.83 0-1.5.67-1.5 1.5s.67 1.5 1.5 1.5 1.5-.67 1.5-1.5-.67-1.5-1.5-1.5zm0-6c-.83 0-1.5.67-1.5 1.5S3.17 7.5 4 7.5 5.5 6.83 5.5 6 4.83 4.5 4 4.5zm0 12c-.83 0-1.5.68-1.5 1.5s.68 1.5 1.5 1.5 1.5-.68 1.5-1.5-.67-1.5-1.5-1.5zM7 19h14v-2H7v2zm0-6h14v-2H7v2zm0-8v2h14V5H7z" />
        </symbol>
        <symbol fill="currentColor" viewBox="0 0 24 24" id="format_list_numbered">
            <path
                d="M2 17h2v.5H3v1h1v.5H2v1h3v-4H2v1zm1-9h1V4H2v1h1v3zm-1 3h1.8L2 13.1v.9h3v-1H3.2L5 10.9V10H2v1zm5-6v2h14V5H7zm0 14h14v-2H7v2zm0-6h14v-2H7v2z" />
        </symbol>
        <symbol fill="currentColor" viewBox="0 0 24 24" id="format_list_numbered_rtl">
            <path
                d="M18 17h2v.5h-1v1h1v.5h-2v1h3v-4h-3zm1-9h1V4h-2v1h1zm-1 3h1.8L18 13.1v.9h3v-1h-1.8l1.8-2.1V10h-3zM2 5h14v2H2zm0 12h14v2H2zm0-6h14v2H2z" />
        </symbol>
        <symbol fill="currentColor" viewBox="0 0 24 24" id="format_overline">
            <path
                d="M19 3v2H5V3h14zm-7 4c-3.87 0-7 3.13-7 7s3.13 7 7 7 7-3.13 7-7-3.13-7-7-7zm0 11.5c-2.49 0-4.5-2.01-4.5-4.5S9.51 9.5 12 9.5s4.5 2.01 4.5 4.5-2.01 4.5-4.5 4.5z" />
        </symbol>
        <symbol fill="currentColor" viewBox="0 0 24 24" id="format_paint">
            <path
                d="M18 4V3c0-.55-.45-1-1-1H5c-.55 0-1 .45-1 1v4c0 .55.45 1 1 1h12c.55 0 1-.45 1-1V6h1v4H9v11c0 .55.45 1 1 1h2c.55 0 1-.45 1-1v-9h8V4h-3z" />
        </symbol>
        <symbol fill="currentColor" viewBox="0 0 24 24" id="format_quote">
            <path d="M6 17h3l2-4V7H5v6h3zm8 0h3l2-4V7h-6v6h3z" />
        </symbol>
        <symbol fill="currentColor" viewBox="0 0 24 24" id="format_shapes">
            <path
                d="M23 7V1h-6v2H7V1H1v6h2v10H1v6h6v-2h10v2h6v-6h-2V7h2zM3 3h2v2H3V3zm2 18H3v-2h2v2zm12-2H7v-2H5V7h2V5h10v2h2v10h-2v2zm4 2h-2v-2h2v2zM19 5V3h2v2h-2zm-5.27 9h-3.49l-.73 2H7.89l3.4-9h1.4l3.41 9h-1.63l-.74-2zm-3.04-1.26h2.61L12 8.91l-1.31 3.83z" />
        </symbol>
        <symbol fill="currentColor" viewBox="0 0 24 24" id="format_size">
            <path d="M9 4v3h5v12h3V7h5V4H9zm-6 8h3v7h3v-7h3V9H3v3z" />
        </symbol>
        <symbol fill="currentColor" viewBox="0 0 24 24" id="format_strikethrough">
            <path d="M10 19h4v-3h-4v3zM5 4v3h5v3h4V7h5V4H5zM3 14h18v-2H3v2z" />
        </symbol>
        <symbol fill="currentColor" viewBox="0 0 24 24" id="format_textdirection_l_to_r">
            <path
                d="M9 10v5h2V4h2v11h2V4h2V2H9C6.79 2 5 3.79 5 6s1.79 4 4 4zm12 8-4-4v3H5v2h12v3l4-4z" />
        </symbol>
        <symbol fill="currentColor" viewBox="0 0 24 24" id="format_textdirection_r_to_l">
            <path
                d="M10 10v5h2V4h2v11h2V4h2V2h-8C7.79 2 6 3.79 6 6s1.79 4 4 4zm-2 7v-3l-4 4 4 4v-3h12v-2H8z" />
        </symbol>
        <symbol fill="currentColor" viewBox="0 0 24 24" id="format_underlined">
            <path
                d="M12 17c3.31 0 6-2.69 6-6V3h-2.5v8c0 1.93-1.57 3.5-3.5 3.5S8.5 12.93 8.5 11V3H6v8c0 3.31 2.69 6 6 6zm-7 2v2h14v-2H5z" />
        </symbol>
        <symbol fill="currentColor" viewBox="0 0 24 24" id="grid_3x3">
            <path
                d="M20 10V8h-4V4h-2v4h-4V4H8v4H4v2h4v4H4v2h4v4h2v-4h4v4h2v-4h4v-2h-4v-4h4zm-6 4h-4v-4h4v4z" />
        </symbol>
        <symbol fill="currentColor" viewBox="0 0 24 24" id="grid_4x4">
            <path
                d="M22 7V5h-3V2h-2v3h-4V2h-2v3H7V2H5v3H2v2h3v4H2v2h3v4H2v2h3v3h2v-3h4v3h2v-3h4v3h2v-3h3v-2h-3v-4h3v-2h-3V7h3zM7 7h4v4H7V7zm0 10v-4h4v4H7zm10 0h-4v-4h4v4zm0-6h-4V7h4v4z" />
        </symbol>
        <symbol fill="currentColor" viewBox="0 0 24 24" id="grid_goldenratio">
            <path
                d="M22 11V9h-7V2h-2v7h-2V2H9v7H2v2h7v2H2v2h7v7h2v-7h2v7h2v-7h7v-2h-7v-2h7zm-9 2h-2v-2h2v2z" />
        </symbol>
        <symbol fill="currentColor" viewBox="0 0 24 24" id="grid_off">
            <path
                d="M8 4v1.45l2 2V4h4v4h-3.45l2 2H14v1.45l2 2V10h4v4h-3.45l2 2H20v1.45l2 2V4c0-1.1-.9-2-2-2H4.55l2 2H8zm8 0h4v4h-4V4zM1.27 1.27 0 2.55l2 2V20c0 1.1.9 2 2 2h15.46l2 2 1.27-1.27L1.27 1.27zM10 12.55 11.45 14H10v-1.45zm-6-6L5.45 8H4V6.55zM8 20H4v-4h4v4zm0-6H4v-4h3.45l.55.55V14zm6 6h-4v-4h3.45l.55.54V20zm2 0v-1.46L17.46 20H16z" />
        </symbol>
        <symbol fill="currentColor" viewBox="0 0 24 24" id="grid_on">
            <path
                d="M20 2H4c-1.1 0-2 .9-2 2v16c0 1.1.9 2 2 2h16c1.1 0 2-.9 2-2V4c0-1.1-.9-2-2-2zM8 20H4v-4h4v4zm0-6H4v-4h4v4zm0-6H4V4h4v4zm6 12h-4v-4h4v4zm0-6h-4v-4h4v4zm0-6h-4V4h4v4zm6 12h-4v-4h4v4zm0-6h-4v-4h4v4zm0-6h-4V4h4v4z" />
        </symbol>
        <symbol fill="currentColor" viewBox="0 0 24 24" id="grid_view">
            <path fill-rule="evenodd"
                d="M3 3v8h8V3H3zm6 6H5V5h4v4zm-6 4v8h8v-8H3zm6 6H5v-4h4v4zm4-16v8h8V3h-8zm6 6h-4V5h4v4zm-6 4v8h8v-8h-8zm6 6h-4v-4h4v4z" />
        </symbol>
        <symbol fill="currentColor" viewBox="0 0 24 24" id="info">
            <path
                d="M12 2C6.48 2 2 6.48 2 12s4.48 10 10 10 10-4.48 10-10S17.52 2 12 2zm1 15h-2v-6h2v6zm0-8h-2V7h2v2z" />
        </symbol>
        <symbol fill="currentColor" viewBox="0 0 24 24" id="input">
            <path
                d="M21 3.01H3c-1.1 0-2 .9-2 2V9h2V4.99h18v14.03H3V15H1v4.01c0 1.1.9 1.98 2 1.98h18c1.1 0 2-.88 2-1.98v-14a2 2 0 0 0-2-2zM11 16l4-4-4-4v3H1v2h10v3z" />
        </symbol>
        <symbol fill="currentColor" viewBox="0 0 24 24" id="insert_chart">
            <path
                d="M19 3H5c-1.1 0-2 .9-2 2v14c0 1.1.9 2 2 2h14c1.1 0 2-.9 2-2V5c0-1.1-.9-2-2-2zM9 17H7v-7h2v7zm4 0h-2V7h2v10zm4 0h-2v-4h2v4z" />
        </symbol>
        <symbol fill="currentColor" viewBox="0 0 24 24" id="insert_chart_outlined">
            <path
                d="M9 17H7v-7h2v7zm4 0h-2V7h2v10zm4 0h-2v-4h2v4zm2.5 2.1h-15V5h15v14.1zm0-16.1h-15c-1.1 0-2 .9-2 2v14c0 1.1.9 2 2 2h15c1.1 0 2-.9 2-2V5c0-1.1-.9-2-2-2z" />
        </symbol>
        <symbol fill="currentColor" viewBox="0 0 24 24" id="insert_comment">
            <path
                d="M20 2H4c-1.1 0-2 .9-2 2v12c0 1.1.9 2 2 2h14l4 4V4c0-1.1-.9-2-2-2zm-2 12H6v-2h12v2zm0-3H6V9h12v2zm0-3H6V6h12v2z" />
        </symbol>
        <symbol fill="currentColor" viewBox="0 0 24 24" id="insert_drive_file">
            <path
                d="M6 2c-1.1 0-1.99.9-1.99 2L4 20c0 1.1.89 2 1.99 2H18c1.1 0 2-.9 2-2V8l-6-6H6zm7 7V3.5L18.5 9H13z" />
        </symbol>
        <symbol fill="currentColor" viewBox="0 0 24 24" id="insert_emoticon">
            <path
                d="M11.99 2C6.47 2 2 6.48 2 12s4.47 10 9.99 10C17.52 22 22 17.52 22 12S17.52 2 11.99 2zM12 20c-4.42 0-8-3.58-8-8s3.58-8 8-8 8 3.58 8 8-3.58 8-8 8zm3.5-9c.83 0 1.5-.67 1.5-1.5S16.33 8 15.5 8 14 8.67 14 9.5s.67 1.5 1.5 1.5zm-7 0c.83 0 1.5-.67 1.5-1.5S9.33 8 8.5 8 7 8.67 7 9.5 7.67 11 8.5 11zm3.5 6.5c2.33 0 4.31-1.46 5.11-3.5H6.89c.8 2.04 2.78 3.5 5.11 3.5z" />
        </symbol>
        <symbol fill="currentColor" viewBox="0 0 24 24" id="insert_invitation">
            <path
                d="M17 12h-5v5h5v-5zM16 1v2H8V1H6v2H5c-1.11 0-1.99.9-1.99 2L3 19a2 2 0 0 0 2 2h14c1.1 0 2-.9 2-2V5c0-1.1-.9-2-2-2h-1V1h-2zm3 18H5V8h14v11z" />
        </symbol>
        <symbol fill="currentColor" viewBox="0 0 24 24" id="insert_link">
            <path
                d="M3.9 12c0-1.71 1.39-3.1 3.1-3.1h4V7H7c-2.76 0-5 2.24-5 5s2.24 5 5 5h4v-1.9H7c-1.71 0-3.1-1.39-3.1-3.1zM8 13h8v-2H8v2zm9-6h-4v1.9h4c1.71 0 3.1 1.39 3.1 3.1s-1.39 3.1-3.1 3.1h-4V17h4c2.76 0 5-2.24 5-5s-2.24-5-5-5z" />
        </symbol>
        <symbol fill="currentColor" viewBox="0 0 24 24" id="insert_page_break">
            <path
                d="M4 20c0 1.1.89 2 1.99 2H18c1.1 0 2-.9 2-2v-3H4v3zM20 8l-6-6H6c-1.1 0-1.99.9-1.99 2v7H20V8zm-7 1V3.5L18.5 9H13zm-4 4h6v2H9zm8 0h6v2h-6zM1 13h6v2H1z" />
        </symbol>
        <symbol fill="currentColor" viewBox="0 0 24 24" id="insert_photo">
            <path
                d="M21 19V5c0-1.1-.9-2-2-2H5c-1.1 0-2 .9-2 2v14c0 1.1.9 2 2 2h14c1.1 0 2-.9 2-2zM8.5 13.5l2.5 3.01L14.5 12l4.5 6H5l3.5-4.5z" />
        </symbol>
        <symbol fill="currentColor" viewBox="0 0 24 24" id="inventory">
            <path
                d="M20 2H4c-1 0-2 .9-2 2v3.01c0 .72.43 1.34 1 1.69V20c0 1.1 1.1 2 2 2h14c.9 0 2-.9 2-2V8.7c.57-.35 1-.97 1-1.69V4c0-1.1-1-2-2-2zm-5 12H9v-2h6v2zm5-7H4V4l16-.02V7z" />
        </symbol>
        <symbol fill="currentColor" viewBox="0 0 24 24" id="inventory-outline">
            <path
                d="M5 5h2v3h10V5h2v5h2V5c0-1.1-.9-2-2-2h-4.18C14.4 1.84 13.3 1 12 1s-2.4.84-2.82 2H5c-1.1 0-2 .9-2 2v14c0 1.1.9 2 2 2h6v-2H5V5zm7-2c.55 0 1 .45 1 1s-.45 1-1 1-1-.45-1-1 .45-1 1-1z" />
            <path d="M21 11.5 15.51 17l-3.01-3-1.5 1.5 4.51 4.5 6.99-7z" />
        </symbol>
        <symbol fill="currentColor" viewBox="0 0 24 24" id="inventory_2">
            <path
                d="M20 2H4c-1 0-2 .9-2 2v3.01c0 .72.43 1.34 1 1.69V20c0 1.1 1.1 2 2 2h14c.9 0 2-.9 2-2V8.7c.57-.35 1-.97 1-1.69V4c0-1.1-1-2-2-2zm-5 12H9v-2h6v2zm5-7H4V4h16v3z" />
        </symbol>
        <symbol fill="currentColor" viewBox="0 0 24 24" id="inventory_2-outline">
            <path
                d="M20 2H4c-1 0-2 .9-2 2v3.01c0 .72.43 1.34 1 1.69V20c0 1.1 1.1 2 2 2h14c.9 0 2-.9 2-2V8.7c.57-.35 1-.97 1-1.69V4c0-1.1-1-2-2-2zm-1 18H5V9h14v11zm1-13H4V4h16v3z" />
            <path d="M9 12h6v2H9z" />
        </symbol>
        <symbol fill="currentColor" viewBox="0 0 24 24" id="library_add">
            <path
                d="M4 6H2v14c0 1.1.9 2 2 2h14v-2H4V6zm16-4H8c-1.1 0-2 .9-2 2v12c0 1.1.9 2 2 2h12c1.1 0 2-.9 2-2V4c0-1.1-.9-2-2-2zm-1 9h-4v4h-2v-4H9V9h4V5h2v4h4v2z" />
        </symbol>
        <symbol fill="currentColor" viewBox="0 0 24 24" id="library_add_check">
            <path
                d="M20 2H8c-1.1 0-2 .9-2 2v12c0 1.1.9 2 2 2h12c1.1 0 2-.9 2-2V4c0-1.1-.9-2-2-2zm-7.53 12L9 10.5l1.4-1.41 2.07 2.08L17.6 6 19 7.41 12.47 14zM4 6H2v14c0 1.1.9 2 2 2h14v-2H4V6z" />
        </symbol>
        <symbol fill="currentColor" viewBox="0 0 24 24" id="library_books">
            <path
                d="M4 6H2v14c0 1.1.9 2 2 2h14v-2H4V6zm16-4H8c-1.1 0-2 .9-2 2v12c0 1.1.9 2 2 2h12c1.1 0 2-.9 2-2V4c0-1.1-.9-2-2-2zm-1 9H9V9h10v2zm-4 4H9v-2h6v2zm4-8H9V5h10v2z" />
        </symbol>
        <symbol fill="currentColor" viewBox="0 0 24 24" id="library_music">
            <path
                d="M20 2H8c-1.1 0-2 .9-2 2v12c0 1.1.9 2 2 2h12c1.1 0 2-.9 2-2V4c0-1.1-.9-2-2-2zm-2 5h-3v5.5a2.5 2.5 0 0 1-5 0 2.5 2.5 0 0 1 2.5-2.5c.57 0 1.08.19 1.5.51V5h4v2zM4 6H2v14c0 1.1.9 2 2 2h14v-2H4V6z" />
        </symbol>
        <symbol fill="currentColor" viewBox="0 0 24 24" id="light">
            <path
                d="M13 6.06V3h-2v3.06c-4.5.5-8 4.31-8 8.93C3 16.1 3.9 17 5.01 17H8c0 2.21 1.79 4 4 4s4-1.79 4-4h2.99c1.11 0 2.01-.9 2.01-2.01 0-4.62-3.5-8.43-8-8.93zM12 15H5c0-3.86 3.14-7 7-7s7 3.14 7 7h-7z" />
        </symbol>
        <symbol fill="currentColor" viewBox="0 0 24 24" id="light_mode">
            <path
                d="M12 7c-2.76 0-5 2.24-5 5s2.24 5 5 5 5-2.24 5-5-2.24-5-5-5zM2 13h2c.55 0 1-.45 1-1s-.45-1-1-1H2c-.55 0-1 .45-1 1s.45 1 1 1zm18 0h2c.55 0 1-.45 1-1s-.45-1-1-1h-2c-.55 0-1 .45-1 1s.45 1 1 1zM11 2v2c0 .55.45 1 1 1s1-.45 1-1V2c0-.55-.45-1-1-1s-1 .45-1 1zm0 18v2c0 .55.45 1 1 1s1-.45 1-1v-2c0-.55-.45-1-1-1s-1 .45-1 1zM5.99 4.58a.996.996 0 0 0-1.41 0 .996.996 0 0 0 0 1.41l1.06 1.06c.39.39 1.03.39 1.41 0s.39-1.03 0-1.41L5.99 4.58zm12.37 12.37a.996.996 0 0 0-1.41 0 .996.996 0 0 0 0 1.41l1.06 1.06c.39.39 1.03.39 1.41 0a.996.996 0 0 0 0-1.41l-1.06-1.06zm1.06-10.96a.996.996 0 0 0 0-1.41.996.996 0 0 0-1.41 0l-1.06 1.06c-.39.39-.39 1.03 0 1.41s1.03.39 1.41 0l1.06-1.06zM7.05 18.36a.996.996 0 0 0 0-1.41.996.996 0 0 0-1.41 0l-1.06 1.06c-.39.39-.39 1.03 0 1.41s1.03.39 1.41 0l1.06-1.06z" />
        </symbol>
        <symbol fill="currentColor" viewBox="0 0 24 24" id="manage_accounts">
            <circle cx="10" cy="8" r="4" />
            <path
                d="M10.67 13.02c-.22-.01-.44-.02-.67-.02-2.42 0-4.68.67-6.61 1.82-.88.52-1.39 1.5-1.39 2.53V20h9.26a6.963 6.963 0 0 1-.59-6.98zM20.75 16c0-.22-.03-.42-.06-.63l1.14-1.01-1-1.73-1.45.49c-.32-.27-.68-.48-1.08-.63L18 11h-2l-.3 1.49c-.4.15-.76.36-1.08.63l-1.45-.49-1 1.73 1.14 1.01c-.03.21-.06.41-.06.63s.03.42.06.63l-1.14 1.01 1 1.73 1.45-.49c.32.27.68.48 1.08.63L16 21h2l.3-1.49c.4-.15.76-.36 1.08-.63l1.45.49 1-1.73-1.14-1.01c.03-.21.06-.41.06-.63zM17 18c-1.1 0-2-.9-2-2s.9-2 2-2 2 .9 2 2-.9 2-2 2z" />
        </symbol>
        <symbol fill="currentColor" viewBox="0 0 24 24" id="manage_history">
            <path
                d="m22.69 18.37 1.14-1-1-1.73-1.45.49c-.32-.27-.68-.48-1.08-.63L20 14h-2l-.3 1.49c-.4.15-.76.36-1.08.63l-1.45-.49-1 1.73 1.14 1c-.08.5-.08.76 0 1.26l-1.14 1 1 1.73 1.45-.49c.32.27.68.48 1.08.63L18 24h2l.3-1.49c.4-.15.76-.36 1.08-.63l1.45.49 1-1.73-1.14-1c.08-.51.08-.77 0-1.27zM19 21c-1.1 0-2-.9-2-2s.9-2 2-2 2 .9 2 2-.9 2-2 2zM11 7v5.41l2.36 2.36 1.04-1.79-1.4-1.39V7h-2zm10 5a9 9 0 0 0-9-9C9.17 3 6.65 4.32 5 6.36V4H3v6h6V8H6.26A7.01 7.01 0 0 1 12 5c3.86 0 7 3.14 7 7h2zm-10.14 6.91c-2.99-.49-5.35-2.9-5.78-5.91H3.06c.5 4.5 4.31 8 8.94 8h.07l-1.21-2.09z" />
        </symbol>
        <symbol fill="currentColor" viewBox="0 0 24 24" id="manage_search">
            <path
                d="M7 9H2V7h5v2zm0 3H2v2h5v-2zm13.59 7-3.83-3.83c-.8.52-1.74.83-2.76.83-2.76 0-5-2.24-5-5s2.24-5 5-5 5 2.24 5 5c0 1.02-.31 1.96-.83 2.75L22 17.59 20.59 19zM17 11c0-1.65-1.35-3-3-3s-3 1.35-3 3 1.35 3 3 3 3-1.35 3-3zM2 19h10v-2H2v2z" />
        </symbol>
        <symbol fill="currentColor" viewBox="0 0 24 24" id="menu">
            <path d="M3 18h18v-2H3v2zm0-5h18v-2H3v2zm0-7v2h18V6H3z" />
        </symbol>
        <symbol fill="currentColor" viewBox="0 0 24 24" id="menu_open">
            <path
                d="M3 18h13v-2H3v2zm0-5h10v-2H3v2zm0-7v2h13V6H3zm18 9.59L17.42 12 21 8.41 19.59 7l-5 5 5 5L21 15.59z" />
        </symbol>
        <symbol fill="currentColor" viewBox="0 0 24 24" id="minimize">
            <path d="M6 19h12v2H6z" />
        </symbol>
        <symbol fill="currentColor" viewBox="0 0 24 24" id="money">
            <path
                d="M5 8h2v8H5zm7 0H9c-.55 0-1 .45-1 1v6c0 .55.45 1 1 1h3c.55 0 1-.45 1-1V9c0-.55-.45-1-1-1zm-1 6h-1v-4h1v4zm7-6h-3c-.55 0-1 .45-1 1v6c0 .55.45 1 1 1h3c.55 0 1-.45 1-1V9c0-.55-.45-1-1-1zm-1 6h-1v-4h1v4z" />
            <path d="M2 4v16h20V4H2zm2 14V6h16v12H4z" />
        </symbol>
        <symbol fill="currentColor" viewBox="0 0 24 24" id="pages">
            <path
                d="M3 5v6h5L7 7l4 1V3H5c-1.1 0-2 .9-2 2zm5 8H3v6c0 1.1.9 2 2 2h6v-5l-4 1 1-4zm9 4-4-1v5h6c1.1 0 2-.9 2-2v-6h-5l1 4zm2-14h-6v5l4-1-1 4h5V5c0-1.1-.9-2-2-2z" />
        </symbol>
        <symbol fill="currentColor" viewBox="0 0 24 24" id="palette">
            <path
                d="M12 2C6.49 2 2 6.49 2 12s4.49 10 10 10a2.5 2.5 0 0 0 2.5-2.5c0-.61-.23-1.2-.64-1.67a.528.528 0 0 1-.13-.33c0-.28.22-.5.5-.5H16c3.31 0 6-2.69 6-6 0-4.96-4.49-9-10-9zm5.5 11c-.83 0-1.5-.67-1.5-1.5s.67-1.5 1.5-1.5 1.5.67 1.5 1.5-.67 1.5-1.5 1.5zm-3-4c-.83 0-1.5-.67-1.5-1.5S13.67 6 14.5 6s1.5.67 1.5 1.5S15.33 9 14.5 9zM5 11.5c0-.83.67-1.5 1.5-1.5s1.5.67 1.5 1.5S7.33 13 6.5 13 5 12.33 5 11.5zm6-4c0 .83-.67 1.5-1.5 1.5S8 8.33 8 7.5 8.67 6 9.5 6s1.5.67 1.5 1.5z" />
        </symbol>
        <symbol fill="currentColor" viewBox="0 0 24 24" id="password">
            <path
                d="M2 17h20v2H2v-2zm1.15-4.05L4 11.47l.85 1.48 1.3-.75-.85-1.48H7v-1.5H5.3l.85-1.47L4.85 7 4 8.47 3.15 7l-1.3.75.85 1.47H1v1.5h1.7l-.85 1.48 1.3.75zm6.7-.75 1.3.75.85-1.48.85 1.48 1.3-.75-.85-1.48H15v-1.5h-1.7l.85-1.47-1.3-.75L12 8.47 11.15 7l-1.3.75.85 1.47H9v1.5h1.7l-.85 1.48zM23 9.22h-1.7l.85-1.47-1.3-.75L20 8.47 19.15 7l-1.3.75.85 1.47H17v1.5h1.7l-.85 1.48 1.3.75.85-1.48.85 1.48 1.3-.75-.85-1.48H23v-1.5z" />
        </symbol>
        <symbol fill="currentColor" viewBox="0 0 24 24" id="pause">
            <path d="M6 19h4V5H6v14zm8-14v14h4V5h-4z" />
        </symbol>
        <symbol fill="currentColor" viewBox="0 0 24 24" id="pause_circle">
            <path
                d="M12 2C6.48 2 2 6.48 2 12s4.48 10 10 10 10-4.48 10-10S17.52 2 12 2zm-1 14H9V8h2v8zm4 0h-2V8h2v8z" />
        </symbol>
        <symbol fill="currentColor" viewBox="0 0 24 24" id="pause_circle_filled">
            <path
                d="M12 2C6.48 2 2 6.48 2 12s4.48 10 10 10 10-4.48 10-10S17.52 2 12 2zm-1 14H9V8h2v8zm4 0h-2V8h2v8z" />
        </symbol>
        <symbol fill="currentColor" viewBox="0 0 24 24" id="pause_circle_outline">
            <path
                d="M9 16h2V8H9v8zm3-14C6.48 2 2 6.48 2 12s4.48 10 10 10 10-4.48 10-10S17.52 2 12 2zm0 18c-4.41 0-8-3.59-8-8s3.59-8 8-8 8 3.59 8 8-3.59 8-8 8zm1-4h2V8h-2v8z" />
        </symbol>
        <symbol fill="currentColor" viewBox="0 0 24 24" id="pause_presentation">
            <path
                d="M21 19.1H3V5h18v14.1zM21 3H3c-1.1 0-2 .9-2 2v14c0 1.1.9 2 2 2h18c1.1 0 2-.9 2-2V5c0-1.1-.9-2-2-2z" />
            <path d="M9 8h2v8H9zm4 0h2v8h-2z" />
        </symbol>
        <symbol fill="currentColor" viewBox="0 0 24 24" id="people">
            <path
                d="M16 11c1.66 0 2.99-1.34 2.99-3S17.66 5 16 5c-1.66 0-3 1.34-3 3s1.34 3 3 3zm-8 0c1.66 0 2.99-1.34 2.99-3S9.66 5 8 5C6.34 5 5 6.34 5 8s1.34 3 3 3zm0 2c-2.33 0-7 1.17-7 3.5V19h14v-2.5c0-2.33-4.67-3.5-7-3.5zm8 0c-.29 0-.62.02-.97.05 1.16.84 1.97 1.97 1.97 3.45V19h6v-2.5c0-2.33-4.67-3.5-7-3.5z" />
        </symbol>
        <symbol fill="currentColor" viewBox="0 0 24 24" id="people_alt">
            <path fill-rule="evenodd"
                d="M16.67 13.13C18.04 14.06 19 15.32 19 17v3h4v-3c0-2.18-3.57-3.47-6.33-3.87z" />
            <circle cx="9" cy="8" r="4" fill-rule="evenodd" />
            <path fill-rule="evenodd"
                d="M15 12c2.21 0 4-1.79 4-4s-1.79-4-4-4c-.47 0-.91.1-1.33.24a5.98 5.98 0 0 1 0 7.52c.42.14.86.24 1.33.24zm-6 1c-2.67 0-8 1.34-8 4v3h16v-3c0-2.66-5.33-4-8-4z" />
        </symbol>
        <symbol fill="currentColor" viewBox="0 0 24 24" id="people_outline">
            <path
                d="M16.5 13c-1.2 0-3.07.34-4.5 1-1.43-.67-3.3-1-4.5-1C5.33 13 1 14.08 1 16.25V19h22v-2.75c0-2.17-4.33-3.25-6.5-3.25zm-4 4.5h-10v-1.25c0-.54 2.56-1.75 5-1.75s5 1.21 5 1.75v1.25zm9 0H14v-1.25c0-.46-.2-.86-.52-1.22.88-.3 1.96-.53 3.02-.53 2.44 0 5 1.21 5 1.75v1.25zM7.5 12c1.93 0 3.5-1.57 3.5-3.5S9.43 5 7.5 5 4 6.57 4 8.5 5.57 12 7.5 12zm0-5.5c1.1 0 2 .9 2 2s-.9 2-2 2-2-.9-2-2 .9-2 2-2zm9 5.5c1.93 0 3.5-1.57 3.5-3.5S18.43 5 16.5 5 13 6.57 13 8.5s1.57 3.5 3.5 3.5zm0-5.5c1.1 0 2 .9 2 2s-.9 2-2 2-2-.9-2-2 .9-2 2-2z" />
        </symbol>
        <symbol fill="currentColor" viewBox="0 0 24 24" id="play_arrow">
            <path d="M8 5v14l11-7z" />
        </symbol>
        <symbol fill="currentColor" viewBox="0 0 24 24" id="play_circle">
            <path
                d="M12 2C6.48 2 2 6.48 2 12s4.48 10 10 10 10-4.48 10-10S17.52 2 12 2zM9.5 16.5v-9l7 4.5-7 4.5z" />
        </symbol>
        <symbol fill="currentColor" viewBox="0 0 24 24" id="play_circle_filled">
            <path
                d="M12 2C6.48 2 2 6.48 2 12s4.48 10 10 10 10-4.48 10-10S17.52 2 12 2zm-2 14.5v-9l6 4.5-6 4.5z" />
        </symbol>
        <symbol fill="currentColor" viewBox="0 0 24 24" id="play_circle_outline">
            <path
                d="m10 16.5 6-4.5-6-4.5v9zM12 2C6.48 2 2 6.48 2 12s4.48 10 10 10 10-4.48 10-10S17.52 2 12 2zm0 18c-4.41 0-8-3.59-8-8s3.59-8 8-8 8 3.59 8 8-3.59 8-8 8z" />
        </symbol>
        <symbol fill="currentColor" viewBox="0 0 24 24" id="play_disabled">
            <path
                d="M8 5.19V5l11 7-2.55 1.63L8 5.19zm12 14.54-5.11-5.11L8 7.73 4.27 4 3 5.27l5 5V19l5.33-3.4 5.4 5.4L20 19.73z" />
        </symbol>
        <symbol fill="currentColor" viewBox="0 0 24 24" id="play_for_work">
            <path
                d="M11 5v5.59H7.5l4.5 4.5 4.5-4.5H13V5h-2zm-5 9c0 3.31 2.69 6 6 6s6-2.69 6-6h-2c0 2.21-1.79 4-4 4s-4-1.79-4-4H6z" />
        </symbol>
        <symbol fill="currentColor" viewBox="0 0 24 24" id="play_lesson">
            <path
                d="M18 11c.34 0 .67.03 1 .08V4c0-1.1-.9-2-2-2H5c-1.1 0-2 .9-2 2v16c0 1.1.9 2 2 2h7.26A6.995 6.995 0 0 1 18 11zM7 11V4h5v7L9.5 9.5 7 11z" />
            <path
                d="M18 13c-2.76 0-5 2.24-5 5s2.24 5 5 5 5-2.24 5-5-2.24-5-5-5zm-1.25 7.5v-5l4 2.5-4 2.5z" />
        </symbol>
        <symbol fill="currentColor" viewBox="0 0 24 24" id="playlist_add">
            <path
                d="M14 10H3v2h11v-2zm0-4H3v2h11V6zm4 8v-4h-2v4h-4v2h4v4h2v-4h4v-2h-4zM3 16h7v-2H3v2z" />
        </symbol>
        <symbol fill="currentColor" viewBox="0 0 24 24" id="playlist_add_check">
            <path
                d="M3 10h11v2H3zm0-4h11v2H3zm0 8h7v2H3zm17.59-2.07-4.25 4.24-2.12-2.12-1.41 1.41L16.34 19 22 13.34z" />
        </symbol>
        <symbol fill="currentColor" viewBox="0 0 24 24" id="playlist_add_check_circle">
            <path
                d="M12 2C6.48 2 2 6.48 2 12s4.48 10 10 10 10-4.48 10-10S17.52 2 12 2zM7 7h7v2H7V7zm0 3h7v2H7v-2zm3 5H7v-2h3v2zm4.05 3.36-2.83-2.83 1.41-1.41 1.41 1.41L17.59 12 19 13.41l-4.95 4.95z" />
        </symbol>
        <symbol fill="currentColor" viewBox="0 0 24 24" id="playlist_add_circle">
            <path
                d="M12 2C6.48 2 2 6.48 2 12s4.48 10 10 10 10-4.48 10-10S17.52 2 12 2zM7 7h7v2H7V7zm3 8H7v-2h3v2zm-3-3v-2h7v2H7zm12 3h-2v2h-2v-2h-2v-2h2v-2h2v2h2v2z" />
        </symbol>
        <symbol fill="currentColor" viewBox="0 0 24 24" id="playlist_play">
            <path d="M3 10h11v2H3zm0-4h11v2H3zm0 8h7v2H3zm13-1v8l6-4z" />
        </symbol>
        <symbol fill="currentColor" viewBox="0 0 24 24" id="playlist_remove">
            <path
                d="M14 10H3v2h11v-2zm0-4H3v2h11V6zM3 16h7v-2H3v2zm11.41 6L17 19.41 19.59 22 21 20.59 18.41 18 21 15.41 19.59 14 17 16.59 14.41 14 13 15.41 15.59 18 13 20.59 14.41 22z" />
        </symbol>
        <symbol fill="currentColor" viewBox="0 0 NaN NaN" id="public--images--sprite" />
        <symbol fill="currentColor" viewBox="0 0 24 24" id="qr_code">
            <path
                d="M3 11h8V3H3v8zm2-6h4v4H5V5zM3 21h8v-8H3v8zm2-6h4v4H5v-4zm8-12v8h8V3h-8zm6 6h-4V5h4v4zm0 10h2v2h-2zm-6-6h2v2h-2zm2 2h2v2h-2zm-2 2h2v2h-2zm2 2h2v2h-2zm2-2h2v2h-2zm0-4h2v2h-2zm2 2h2v2h-2z" />
        </symbol>
        <symbol fill="currentColor" viewBox="0 0 24 24" id="qr_code_2">
            <path
                d="M15 21h-2v-2h2v2zm-2-7h-2v5h2v-5zm8-2h-2v4h2v-4zm-2-2h-2v2h2v-2zM7 12H5v2h2v-2zm-2-2H3v2h2v-2zm7-5h2V3h-2v2zm-7.5-.5v3h3v-3h-3zM9 9H3V3h6v6zm-4.5 7.5v3h3v-3h-3zM9 21H3v-6h6v6zm7.5-16.5v3h3v-3h-3zM21 9h-6V3h6v6zm-2 10v-3h-4v2h2v3h4v-2h-2zm-2-7h-4v2h4v-2zm-4-2H7v2h2v2h2v-2h2v-2zm1-1V7h-2V5h-2v4h4zM6.75 5.25h-1.5v1.5h1.5v-1.5zm0 12h-1.5v1.5h1.5v-1.5zm12-12h-1.5v1.5h1.5v-1.5z" />
        </symbol>
        <symbol fill="currentColor" viewBox="0 0 24 24" id="qr_code_scanner">
            <path
                d="M9.5 6.5v3h-3v-3h3M11 5H5v6h6V5zm-1.5 9.5v3h-3v-3h3M11 13H5v6h6v-6zm6.5-6.5v3h-3v-3h3M19 5h-6v6h6V5zm-6 8h1.5v1.5H13V13zm1.5 1.5H16V16h-1.5v-1.5zM16 13h1.5v1.5H16V13zm-3 3h1.5v1.5H13V16zm1.5 1.5H16V19h-1.5v-1.5zM16 16h1.5v1.5H16V16zm1.5-1.5H19V16h-1.5v-1.5zm0 3H19V19h-1.5v-1.5zM22 7h-2V4h-3V2h5v5zm0 15v-5h-2v3h-3v2h5zM2 22h5v-2H4v-3H2v5zM2 2v5h2V4h3V2H2z" />
        </symbol>
        <symbol fill="currentColor" viewBox="0 0 24 24" id="query_builder">
            <path
                d="M11.99 2C6.47 2 2 6.48 2 12s4.47 10 9.99 10C17.52 22 22 17.52 22 12S17.52 2 11.99 2zM12 20c-4.42 0-8-3.58-8-8s3.58-8 8-8 8 3.58 8 8-3.58 8-8 8z" />
            <path d="M12.5 7H11v6l5.25 3.15.75-1.23-4.5-2.67z" />
        </symbol>
        <symbol fill="currentColor" viewBox="0 0 24 24" id="query_stats">
            <path
                d="M19.88 18.47c.44-.7.7-1.51.7-2.39 0-2.49-2.01-4.5-4.5-4.5s-4.5 2.01-4.5 4.5 2.01 4.5 4.49 4.5c.88 0 1.7-.26 2.39-.7L21.58 23 23 21.58l-3.12-3.11zm-3.8.11a2.5 2.5 0 0 1 0-5 2.5 2.5 0 0 1 0 5zm-.36-8.5c-.74.02-1.45.18-2.1.45l-.55-.83-3.8 6.18-3.01-3.52-3.63 5.81L1 17l5-8 3 3.5L13 6l2.72 4.08zm2.59.5c-.64-.28-1.33-.45-2.05-.49L21.38 2 23 3.18l-4.69 7.4z" />
        </symbol>
        <symbol fill="currentColor" viewBox="0 0 24 24" id="question_mark">
            <path
                d="M11.07 12.85c.77-1.39 2.25-2.21 3.11-3.44.91-1.29.4-3.7-2.18-3.7-1.69 0-2.52 1.28-2.87 2.34L6.54 6.96C7.25 4.83 9.18 3 11.99 3c2.35 0 3.96 1.07 4.78 2.41.7 1.15 1.11 3.3.03 4.9-1.2 1.77-2.35 2.31-2.97 3.45-.25.46-.35.76-.35 2.24h-2.89c-.01-.78-.13-2.05.48-3.15zM14 20c0 1.1-.9 2-2 2s-2-.9-2-2 .9-2 2-2 2 .9 2 2z" />
        </symbol>
        <symbol fill="currentColor" viewBox="0 0 24 24" id="read_more">
            <path d="M13 7h9v2h-9zm0 8h9v2h-9zm3-4h6v2h-6zm-3 1L8 7v4H2v2h6v4z" />
        </symbol>
        <symbol fill="currentColor" viewBox="0 0 24 24" id="rectangle">
            <path d="M2 4h20v16H2z" />
        </symbol>
        <symbol fill="currentColor" viewBox="0 0 24 24" id="redo">
            <path
                d="M18.4 10.6C16.55 8.99 14.15 8 11.5 8c-4.65 0-8.58 3.03-9.96 7.22L3.9 16a8.002 8.002 0 0 1 7.6-5.5c1.95 0 3.73.72 5.12 1.88L13 16h9V7l-3.6 3.6z" />
        </symbol>
        <symbol fill="currentColor" viewBox="0 0 24 24" id="repeat">
            <path d="M7 7h10v3l4-4-4-4v3H5v6h2V7zm10 10H7v-3l-4 4 4 4v-3h12v-6h-2v4z" />
        </symbol>
        <symbol fill="currentColor" viewBox="0 0 24 24" id="repeat_on">
            <path fill-rule="evenodd"
                d="M21 1H3c-1.1 0-2 .9-2 2v18c0 1.1.9 2 2 2h18c1.1 0 2-.9 2-2V3c0-1.1-.9-2-2-2zM7 7h10v3l4-4-4-4v3H5v6h2V7zm10 10H7v-3l-4 4 4 4v-3h12v-6h-2v4z" />
        </symbol>
        <symbol fill="currentColor" viewBox="0 0 24 24" id="repeat_one">
            <path
                d="M7 7h10v3l4-4-4-4v3H5v6h2V7zm10 10H7v-3l-4 4 4 4v-3h12v-6h-2v4zm-4-2V9h-1l-2 1v1h1.5v4H13z" />
        </symbol>
        <symbol fill="currentColor" viewBox="0 0 24 24" id="repeat_one_on">
            <path fill-rule="evenodd"
                d="M21 1H3c-1.1 0-2 .9-2 2v18c0 1.1.9 2 2 2h18c1.1 0 2-.9 2-2V3c0-1.1-.9-2-2-2zM7 7h10v3l4-4-4-4v3H5v6h2V7zm10 10H7v-3l-4 4 4 4v-3h12v-6h-2v4zm-4-2V9h-1l-2 1v1h1.5v4H13z" />
        </symbol>
        <symbol fill="currentColor" viewBox="0 0 24 24" id="replay_10">
            <path
                d="M11.99 5V1l-5 5 5 5V7c3.31 0 6 2.69 6 6s-2.69 6-6 6-6-2.69-6-6h-2c0 4.42 3.58 8 8 8s8-3.58 8-8-3.58-8-8-8z" />
            <path
                d="M10.89 16h-.85v-3.26l-1.01.31v-.69l1.77-.63h.09V16zm4.28-1.76c0 .32-.03.6-.1.82s-.17.42-.29.57-.28.26-.45.33-.37.1-.59.1-.41-.03-.59-.1-.33-.18-.46-.33-.23-.34-.3-.57-.11-.5-.11-.82v-.74c0-.32.03-.6.1-.82s.17-.42.29-.57.28-.26.45-.33.37-.1.59-.1.41.03.59.1.33.18.46.33.23.34.3.57.11.5.11.82v.74zm-.85-.86c0-.19-.01-.35-.04-.48s-.07-.23-.12-.31-.11-.14-.19-.17-.16-.05-.25-.05-.18.02-.25.05-.14.09-.19.17-.09.18-.12.31-.04.29-.04.48v.97c0 .19.01.35.04.48s.07.24.12.32.11.14.19.17.16.05.25.05.18-.02.25-.05.14-.09.19-.17.09-.19.11-.32.04-.29.04-.48v-.97z" />
        </symbol>
        <symbol fill="currentColor" viewBox="0 0 24 24" id="replay_30">
            <path
                d="M12 5V1L7 6l5 5V7c3.31 0 6 2.69 6 6s-2.69 6-6 6-6-2.69-6-6H4c0 4.42 3.58 8 8 8s8-3.58 8-8-3.58-8-8-8z" />
            <path
                d="M9.56 13.49h.45c.21 0 .37-.05.48-.16s.16-.25.16-.43a.538.538 0 0 0-.15-.39c-.05-.05-.11-.09-.18-.11s-.16-.04-.25-.04c-.08 0-.15.01-.22.03s-.13.05-.18.1-.09.09-.12.15-.05.13-.05.2h-.85a1.06 1.06 0 0 1 .41-.85c.13-.1.27-.18.44-.23s.35-.08.54-.08c.21 0 .41.03.59.08s.33.13.46.23.23.23.3.38.11.33.11.53a.842.842 0 0 1-.17.52 1.1 1.1 0 0 1-.48.39c.24.09.42.21.54.39s.18.38.18.61c0 .2-.04.38-.12.53s-.18.29-.32.39-.29.19-.48.24-.38.08-.6.08c-.18 0-.36-.02-.53-.07s-.33-.12-.46-.23-.25-.23-.33-.38-.12-.34-.12-.55h.85c0 .08.02.15.05.22s.07.12.13.17.12.09.2.11.16.04.25.04c.1 0 .19-.01.27-.04s.15-.07.2-.12.1-.11.13-.18.04-.15.04-.24c0-.11-.02-.21-.05-.29s-.08-.15-.14-.2-.13-.09-.22-.11-.18-.04-.29-.04h-.47v-.65zm5.74.75c0 .32-.03.6-.1.82s-.17.42-.29.57-.28.26-.45.33-.37.1-.59.1-.41-.03-.59-.1-.33-.18-.46-.33-.23-.34-.3-.57-.11-.5-.11-.82v-.74c0-.32.03-.6.1-.82s.17-.42.29-.57.28-.26.45-.33.37-.1.59-.1.41.03.59.1.33.18.46.33.23.34.3.57.11.5.11.82v.74zm-.85-.86c0-.19-.01-.35-.04-.48s-.07-.23-.12-.31-.11-.14-.19-.17-.16-.05-.25-.05-.18.02-.25.05-.14.09-.19.17-.09.18-.12.31-.04.29-.04.48v.97c0 .19.01.35.04.48s.07.24.12.32.11.14.19.17.16.05.25.05.18-.02.25-.05.14-.09.19-.17.09-.19.11-.32c.03-.13.04-.29.04-.48v-.97z" />
        </symbol>
        <symbol fill="currentColor" viewBox="0 0 24 24" id="replay_5">
            <path
                d="M12 5V1L7 6l5 5V7c3.31 0 6 2.69 6 6s-2.69 6-6 6-6-2.69-6-6H4c0 4.42 3.58 8 8 8s8-3.58 8-8-3.58-8-8-8z" />
            <path
                d="m10.69 13.9.25-2.17h2.39v.71h-1.7l-.11.92c.03-.02.07-.03.11-.05s.09-.04.15-.05.12-.03.18-.04.13-.02.2-.02c.21 0 .39.03.55.1s.3.16.41.28.2.27.25.45.09.38.09.6c0 .19-.03.37-.09.54s-.15.32-.27.45-.27.24-.45.31-.39.12-.64.12c-.18 0-.36-.03-.53-.08s-.32-.14-.46-.24-.24-.24-.32-.39-.13-.33-.13-.53h.84c.02.18.08.32.19.41s.25.15.42.15a.49.49 0 0 0 .45-.23c.04-.07.08-.15.11-.25s.03-.2.03-.31-.01-.21-.04-.31-.07-.17-.13-.24-.13-.12-.21-.15-.19-.05-.3-.05c-.08 0-.15.01-.2.02s-.11.03-.15.05-.08.05-.12.07-.07.06-.1.09l-.67-.16z" />
        </symbol>
        <symbol fill="currentColor" viewBox="0 0 24 24" id="rotate_90_degrees_ccw">
            <path
                d="M7.34 6.41.86 12.9l6.49 6.48 6.49-6.48-6.5-6.49zM3.69 12.9l3.66-3.66L11 12.9l-3.66 3.66-3.65-3.66zm15.67-6.26A8.95 8.95 0 0 0 13 4V.76L8.76 5 13 9.24V6c1.79 0 3.58.68 4.95 2.05a7.007 7.007 0 0 1 0 9.9 6.973 6.973 0 0 1-7.79 1.44l-1.49 1.49C10.02 21.62 11.51 22 13 22c2.3 0 4.61-.88 6.36-2.64a8.98 8.98 0 0 0 0-12.72z" />
        </symbol>
        <symbol fill="currentColor" viewBox="0 0 24 24" id="rotate_90_degrees_cw">
            <path
                d="M4.64 19.37c3.03 3.03 7.67 3.44 11.15 1.25l-1.46-1.46c-2.66 1.43-6.04 1.03-8.28-1.21a7.007 7.007 0 0 1 0-9.9C7.42 6.69 9.21 6.03 11 6.03V9l4-4-4-4v3.01c-2.3 0-4.61.87-6.36 2.63-3.52 3.51-3.52 9.21 0 12.73zM11 13l6 6 6-6-6-6-6 6z" />
        </symbol>
        <symbol fill="currentColor" viewBox="0 0 24 24" id="rotate_left">
            <path
                d="M7.11 8.53 5.7 7.11C4.8 8.27 4.24 9.61 4.07 11h2.02c.14-.87.49-1.72 1.02-2.47zM6.09 13H4.07c.17 1.39.72 2.73 1.62 3.89l1.41-1.42c-.52-.75-.87-1.59-1.01-2.47zm1.01 5.32c1.16.9 2.51 1.44 3.9 1.61V17.9c-.87-.15-1.71-.49-2.46-1.03L7.1 18.32zM13 4.07V1L8.45 5.55 13 10V6.09c2.84.48 5 2.94 5 5.91s-2.16 5.43-5 5.91v2.02c3.95-.49 7-3.85 7-7.93s-3.05-7.44-7-7.93z" />
        </symbol>
        <symbol fill="currentColor" viewBox="0 0 24 24" id="rotate_right">
            <path
                d="M15.55 5.55 11 1v3.07C7.06 4.56 4 7.92 4 12s3.05 7.44 7 7.93v-2.02c-2.84-.48-5-2.94-5-5.91s2.16-5.43 5-5.91V10l4.55-4.45zM19.93 11a7.906 7.906 0 0 0-1.62-3.89l-1.42 1.42c.54.75.88 1.6 1.02 2.47h2.02zM13 17.9v2.02c1.39-.17 2.74-.71 3.9-1.61l-1.44-1.44c-.75.54-1.59.89-2.46 1.03zm3.89-2.42 1.42 1.41c.9-1.16 1.45-2.5 1.62-3.89h-2.02c-.14.87-.48 1.72-1.02 2.48z" />
        </symbol>
        <symbol fill="currentColor" viewBox="0 0 24 24" id="search">
            <path
                d="M15.5 14h-.79l-.28-.27A6.471 6.471 0 0 0 16 9.5 6.5 6.5 0 1 0 9.5 16c1.61 0 3.09-.59 4.23-1.57l.27.28v.79l5 4.99L20.49 19l-4.99-5zm-6 0C7.01 14 5 11.99 5 9.5S7.01 5 9.5 5 14 7.01 14 9.5 11.99 14 9.5 14z" />
        </symbol>
        <symbol fill="currentColor" viewBox="0 0 24 24" id="search_off">
            <path
                d="M15.5 14h-.79l-.28-.27A6.471 6.471 0 0 0 16 9.5 6.5 6.5 0 0 0 9.5 3C6.08 3 3.28 5.64 3.03 9h2.02C5.3 6.75 7.18 5 9.5 5 11.99 5 14 7.01 14 9.5S11.99 14 9.5 14c-.17 0-.33-.03-.5-.05v2.02c.17.02.33.03.5.03 1.61 0 3.09-.59 4.23-1.57l.27.28v.79l5 4.99L20.49 19l-4.99-5z" />
            <path
                d="M6.47 10.82 4 13.29l-2.47-2.47-.71.71L3.29 14 .82 16.47l.71.71L4 14.71l2.47 2.47.71-.71L4.71 14l2.47-2.47z" />
        </symbol>
        <symbol fill="currentColor" viewBox="0 0 24 24" id="settings">
            <path
                d="M19.14 12.94c.04-.3.06-.61.06-.94 0-.32-.02-.64-.07-.94l2.03-1.58a.49.49 0 0 0 .12-.61l-1.92-3.32a.488.488 0 0 0-.59-.22l-2.39.96c-.5-.38-1.03-.7-1.62-.94l-.36-2.54a.484.484 0 0 0-.48-.41h-3.84c-.24 0-.43.17-.47.41l-.36 2.54c-.59.24-1.13.57-1.62.94l-2.39-.96c-.22-.08-.47 0-.59.22L2.74 8.87c-.12.21-.08.47.12.61l2.03 1.58c-.05.3-.09.63-.09.94s.02.64.07.94l-2.03 1.58a.49.49 0 0 0-.12.61l1.92 3.32c.12.22.37.29.59.22l2.39-.96c.5.38 1.03.7 1.62.94l.36 2.54c.05.24.24.41.48.41h3.84c.24 0 .44-.17.47-.41l.36-2.54c.59-.24 1.13-.56 1.62-.94l2.39.96c.22.08.47 0 .59-.22l1.92-3.32c.12-.22.07-.47-.12-.61l-2.01-1.58zM12 15.6c-1.98 0-3.6-1.62-3.6-3.6s1.62-3.6 3.6-3.6 3.6 1.62 3.6 3.6-1.62 3.6-3.6 3.6z" />
        </symbol>
        <symbol fill="currentColor" viewBox="0 0 24 24" id="settings_accessibility">
            <path
                d="M20.5 4c-2.61.7-5.67 1-8.5 1s-5.89-.3-8.5-1L3 6c1.86.5 4 .83 6 1v12h2v-6h2v6h2V7c2-.17 4.14-.5 6-1l-.5-2zM12 4c1.1 0 2-.9 2-2s-.9-2-2-2-2 .9-2 2 .9 2 2 2zM7 24h2v-2H7v2zm4 0h2v-2h-2v2zm4 0h2v-2h-2v2z" />
        </symbol>
        <symbol fill="currentColor" viewBox="0 0 24 24" id="settings_applications">
            <path
                d="M12 10c-1.1 0-2 .9-2 2s.9 2 2 2 2-.9 2-2-.9-2-2-2zm7-7H5a2 2 0 0 0-2 2v14a2 2 0 0 0 2 2h14a2 2 0 0 0 2-2V5a2 2 0 0 0-2-2zm-1.75 9c0 .23-.02.46-.05.68l1.48 1.16c.13.11.17.3.08.45l-1.4 2.42c-.09.15-.27.21-.43.15l-1.74-.7c-.36.28-.76.51-1.18.69l-.26 1.85c-.03.17-.18.3-.35.3h-2.8c-.17 0-.32-.13-.35-.29l-.26-1.85c-.43-.18-.82-.41-1.18-.69l-1.74.7c-.16.06-.34 0-.43-.15l-1.4-2.42a.353.353 0 0 1 .08-.45l1.48-1.16c-.03-.23-.05-.46-.05-.69 0-.23.02-.46.05-.68l-1.48-1.16a.353.353 0 0 1-.08-.45l1.4-2.42c.09-.15.27-.21.43-.15l1.74.7c.36-.28.76-.51 1.18-.69l.26-1.85c.03-.17.18-.3.35-.3h2.8c.17 0 .32.13.35.29l.26 1.85c.43.18.82.41 1.18.69l1.74-.7c.16-.06.34 0 .43.15l1.4 2.42c.09.15.05.34-.08.45l-1.48 1.16c.03.23.05.46.05.69z" />
        </symbol>
        <symbol fill="currentColor" viewBox="0 0 24 24" id="settings_backup_restore">
            <path
                d="M14 12c0-1.1-.9-2-2-2s-2 .9-2 2 .9 2 2 2 2-.9 2-2zm-2-9a9 9 0 0 0-9 9H0l4 4 4-4H5c0-3.87 3.13-7 7-7s7 3.13 7 7a6.995 6.995 0 0 1-11.06 5.7l-1.42 1.44A9 9 0 1 0 12 3z" />
        </symbol>
        <symbol fill="currentColor" viewBox="0 0 24 24" id="settings_bluetooth">
            <path
                d="M11 24h2v-2h-2v2zm-4 0h2v-2H7v2zm8 0h2v-2h-2v2zm2.71-18.29L12 0h-1v7.59L6.41 3 5 4.41 10.59 10 5 15.59 6.41 17 11 12.41V20h1l5.71-5.71-4.3-4.29 4.3-4.29zM13 3.83l1.88 1.88L13 7.59V3.83zm1.88 10.46L13 16.17v-3.76l1.88 1.88z" />
        </symbol>
        <symbol fill="currentColor" viewBox="0 0 24 24" id="settings_brightness">
            <path
                d="M21 3H3c-1.1 0-2 .9-2 2v14c0 1.1.9 2 2 2h18c1.1 0 2-.9 2-2V5c0-1.1-.9-2-2-2zm0 16.01H3V4.99h18v14.02zM8 16h2.5l1.5 1.5 1.5-1.5H16v-2.5l1.5-1.5-1.5-1.5V8h-2.5L12 6.5 10.5 8H8v2.5L6.5 12 8 13.5V16zm4-7c1.66 0 3 1.34 3 3s-1.34 3-3 3V9z" />
        </symbol>
        <symbol fill="currentColor" viewBox="0 0 24 24" id="settings_cell">
            <path
                d="M7 24h2v-2H7v2zm4 0h2v-2h-2v2zm4 0h2v-2h-2v2zM16 .01 8 0C6.9 0 6 .9 6 2v16c0 1.1.9 2 2 2h8c1.1 0 2-.9 2-2V2c0-1.1-.9-1.99-2-1.99zM16 16H8V4h8v12z" />
        </symbol>
        <symbol fill="currentColor" viewBox="0 0 24 24" id="settings_ethernet">
            <path
                d="M7.77 6.76 6.23 5.48.82 12l5.41 6.52 1.54-1.28L3.42 12l4.35-5.24zM7 13h2v-2H7v2zm10-2h-2v2h2v-2zm-6 2h2v-2h-2v2zm6.77-7.52-1.54 1.28L20.58 12l-4.35 5.24 1.54 1.28L23.18 12l-5.41-6.52z" />
        </symbol>
        <symbol fill="currentColor" viewBox="0 0 24 24" id="settings_input_antenna">
            <path
                d="M12 5c-3.87 0-7 3.13-7 7h2c0-2.76 2.24-5 5-5s5 2.24 5 5h2c0-3.87-3.13-7-7-7zm1 9.29c.88-.39 1.5-1.26 1.5-2.29a2.5 2.5 0 0 0-5 0c0 1.02.62 1.9 1.5 2.29v3.3L7.59 21 9 22.41l3-3 3 3L16.41 21 13 17.59v-3.3zM12 1C5.93 1 1 5.93 1 12h2a9 9 0 0 1 18 0h2c0-6.07-4.93-11-11-11z" />
        </symbol>
        <symbol fill="currentColor" viewBox="0 0 24 24" id="settings_input_component">
            <path
                d="M5 2c0-.55-.45-1-1-1s-1 .45-1 1v4H1v6h6V6H5V2zm4 14c0 1.3.84 2.4 2 2.82V23h2v-4.18c1.16-.41 2-1.51 2-2.82v-2H9v2zm-8 0c0 1.3.84 2.4 2 2.82V23h2v-4.18C6.16 18.4 7 17.3 7 16v-2H1v2zM21 6V2c0-.55-.45-1-1-1s-1 .45-1 1v4h-2v6h6V6h-2zm-8-4c0-.55-.45-1-1-1s-1 .45-1 1v4H9v6h6V6h-2V2zm4 14c0 1.3.84 2.4 2 2.82V23h2v-4.18c1.16-.41 2-1.51 2-2.82v-2h-6v2z" />
        </symbol>
        <symbol fill="currentColor" viewBox="0 0 24 24" id="settings_input_composite">
            <path
                d="M5 2c0-.55-.45-1-1-1s-1 .45-1 1v4H1v6h6V6H5V2zm4 14c0 1.3.84 2.4 2 2.82V23h2v-4.18c1.16-.41 2-1.51 2-2.82v-2H9v2zm-8 0c0 1.3.84 2.4 2 2.82V23h2v-4.18C6.16 18.4 7 17.3 7 16v-2H1v2zM21 6V2c0-.55-.45-1-1-1s-1 .45-1 1v4h-2v6h6V6h-2zm-8-4c0-.55-.45-1-1-1s-1 .45-1 1v4H9v6h6V6h-2V2zm4 14c0 1.3.84 2.4 2 2.82V23h2v-4.18c1.16-.41 2-1.51 2-2.82v-2h-6v2z" />
        </symbol>
        <symbol fill="currentColor" viewBox="0 0 24 24" id="settings_input_hdmi">
            <path
                d="M18 7V4c0-1.1-.9-2-2-2H8c-1.1 0-2 .9-2 2v3H5v6l3 6v3h8v-3l3-6V7h-1zM8 4h8v3h-2V5h-1v2h-2V5h-1v2H8V4z" />
        </symbol>
        <symbol fill="currentColor" viewBox="0 0 24 24" id="settings_input_svideo">
            <path
                d="M8 11.5c0-.83-.67-1.5-1.5-1.5S5 10.67 5 11.5 5.67 13 6.5 13 8 12.33 8 11.5zm7-5c0-.83-.67-1.5-1.5-1.5h-3C9.67 5 9 5.67 9 6.5S9.67 8 10.5 8h3c.83 0 1.5-.67 1.5-1.5zM8.5 15c-.83 0-1.5.67-1.5 1.5S7.67 18 8.5 18s1.5-.67 1.5-1.5S9.33 15 8.5 15zM12 1C5.93 1 1 5.93 1 12s4.93 11 11 11 11-4.93 11-11S18.07 1 12 1zm0 20c-4.96 0-9-4.04-9-9s4.04-9 9-9 9 4.04 9 9-4.04 9-9 9zm5.5-11c-.83 0-1.5.67-1.5 1.5s.67 1.5 1.5 1.5 1.5-.67 1.5-1.5-.67-1.5-1.5-1.5zm-2 5c-.83 0-1.5.67-1.5 1.5s.67 1.5 1.5 1.5 1.5-.67 1.5-1.5-.67-1.5-1.5-1.5z" />
        </symbol>
        <symbol fill="currentColor" viewBox="0 0 24 24" id="settings_overscan">
            <path
                d="M12.01 5.5 10 8h4l-1.99-2.5zM18 10v4l2.5-1.99L18 10zM6 10l-2.5 2.01L6 14v-4zm8 6h-4l2.01 2.5L14 16zm7-13H3c-1.1 0-2 .9-2 2v14c0 1.1.9 2 2 2h18c1.1 0 2-.9 2-2V5c0-1.1-.9-2-2-2zm0 16.01H3V4.99h18v14.02z" />
        </symbol>
        <symbol fill="currentColor" viewBox="0 0 24 24" id="settings_phone">
            <path
                d="M13 9h-2v2h2V9zm4 0h-2v2h2V9zm3 6.5c-1.25 0-2.45-.2-3.57-.57a1.02 1.02 0 0 0-1.02.24l-2.2 2.2a15.074 15.074 0 0 1-6.59-6.58l2.2-2.21c.28-.27.36-.66.25-1.01A11.36 11.36 0 0 1 8.5 4c0-.55-.45-1-1-1H4c-.55 0-1 .45-1 1 0 9.39 7.61 17 17 17 .55 0 1-.45 1-1v-3.5c0-.55-.45-1-1-1zM19 9v2h2V9h-2z" />
        </symbol>
        <symbol fill="currentColor" viewBox="0 0 24 24" id="settings_power">
            <path
                d="M7 24h2v-2H7v2zm4 0h2v-2h-2v2zm2-22h-2v10h2V2zm3.56 2.44-1.45 1.45A5.969 5.969 0 0 1 18 11c0 3.31-2.69 6-6 6s-6-2.69-6-6c0-2.17 1.16-4.06 2.88-5.12L7.44 4.44A7.961 7.961 0 0 0 4 11c0 4.42 3.58 8 8 8s8-3.58 8-8c0-2.72-1.36-5.12-3.44-6.56zM15 24h2v-2h-2v2z" />
        </symbol>
        <symbol fill="currentColor" viewBox="0 0 24 24" id="settings_remote">
            <path
                d="M15 9H9c-.55 0-1 .45-1 1v12c0 .55.45 1 1 1h6c.55 0 1-.45 1-1V10c0-.55-.45-1-1-1zm-3 6c-1.1 0-2-.9-2-2s.9-2 2-2 2 .9 2 2-.9 2-2 2zM7.05 6.05l1.41 1.41a5.022 5.022 0 0 1 7.08 0l1.41-1.41C15.68 4.78 13.93 4 12 4s-3.68.78-4.95 2.05zM12 0C8.96 0 6.21 1.23 4.22 3.22l1.41 1.41C7.26 3.01 9.51 2 12 2s4.74 1.01 6.36 2.64l1.41-1.41C17.79 1.23 15.04 0 12 0z" />
        </symbol>
        <symbol fill="currentColor" viewBox="0 0 24 24" id="settings_suggest">
            <path
                d="M17.41 6.59 15 5.5l2.41-1.09L18.5 2l1.09 2.41L22 5.5l-2.41 1.09L18.5 9l-1.09-2.41zm3.87 6.13L20.5 11l-.78 1.72-1.72.78 1.72.78.78 1.72.78-1.72L23 13.5l-1.72-.78zm-5.04 1.65 1.94 1.47-2.5 4.33-2.24-.94c-.2.13-.42.26-.64.37l-.3 2.4h-5l-.3-2.41c-.22-.11-.43-.23-.64-.37l-2.24.94-2.5-4.33 1.94-1.47c-.01-.11-.01-.24-.01-.36s0-.25.01-.37l-1.94-1.47 2.5-4.33 2.24.94c.2-.13.42-.26.64-.37L7.5 6h5l.3 2.41c.22.11.43.23.64.37l2.24-.94 2.5 4.33-1.94 1.47c.01.12.01.24.01.37s0 .24-.01.36zM13 14c0-1.66-1.34-3-3-3s-3 1.34-3 3 1.34 3 3 3 3-1.34 3-3z" />
        </symbol>
        <symbol fill="currentColor" viewBox="0 0 24 24" id="settings_system_daydream">
            <path
                d="M9 16h6.5a2.5 2.5 0 0 0 0-5h-.05c-.24-1.69-1.69-3-3.45-3-1.4 0-2.6.83-3.16 2.02h-.16A2.994 2.994 0 0 0 6 13c0 1.66 1.34 3 3 3zM21 3H3c-1.1 0-2 .9-2 2v14c0 1.1.9 2 2 2h18c1.1 0 2-.9 2-2V5c0-1.1-.9-2-2-2zm0 16.01H3V4.99h18v14.02z" />
        </symbol>
        <symbol fill="currentColor" viewBox="0 0 24 24" id="settings_voice">
            <path
                d="M7 24h2v-2H7v2zm5-11c1.66 0 2.99-1.34 2.99-3L15 4c0-1.66-1.34-3-3-3S9 2.34 9 4v6c0 1.66 1.34 3 3 3zm-1 11h2v-2h-2v2zm4 0h2v-2h-2v2zm4-14h-1.7c0 3-2.54 5.1-5.3 5.1S6.7 13 6.7 10H5c0 3.41 2.72 6.23 6 6.72V20h2v-3.28c3.28-.49 6-3.31 6-6.72z" />
        </symbol>
        <symbol fill="currentColor" viewBox="0 0 24 24" id="star">
            <path
                d="M12 17.27 18.18 21l-1.64-7.03L22 9.24l-7.19-.61L12 2 9.19 8.63 2 9.24l5.46 4.73L5.82 21z" />
        </symbol>
        <symbol fill="currentColor" viewBox="0 0 24 24" id="star_border">
            <path
                d="m22 9.24-7.19-.62L12 2 9.19 8.63 2 9.24l5.46 4.73L5.82 21 12 17.27 18.18 21l-1.63-7.03L22 9.24zM12 15.4l-3.76 2.27 1-4.28-3.32-2.88 4.38-.38L12 6.1l1.71 4.04 4.38.38-3.32 2.88 1 4.28L12 15.4z" />
        </symbol>
        <symbol fill="currentColor" viewBox="0 0 24 24" id="star_border_purple500">
            <path
                d="m12 8.89.94 3.11h2.82l-2.27 1.62.93 3.01L12 14.79l-2.42 1.84.93-3.01L8.24 12h2.82L12 8.89M12 2l-2.42 8H2l6.17 4.41L5.83 22 12 17.31 18.18 22l-2.35-7.59L22 10h-7.58L12 2z" />
        </symbol>
        <symbol fill="currentColor" viewBox="0 0 24 24" id="star_half">
            <path
                d="m22 9.24-7.19-.62L12 2 9.19 8.63 2 9.24l5.46 4.73L5.82 21 12 17.27 18.18 21l-1.63-7.03L22 9.24zM12 15.4V6.1l1.71 4.04 4.38.38-3.32 2.88 1 4.28L12 15.4z" />
        </symbol>
        <symbol fill="currentColor" viewBox="0 0 24 24" id="star_outline">
            <path
                d="m22 9.24-7.19-.62L12 2 9.19 8.63 2 9.24l5.46 4.73L5.82 21 12 17.27 18.18 21l-1.63-7.03L22 9.24zM12 15.4l-3.76 2.27 1-4.28-3.32-2.88 4.38-.38L12 6.1l1.71 4.04 4.38.38-3.32 2.88 1 4.28L12 15.4z" />
        </symbol>
        <symbol fill="currentColor" viewBox="0 0 24 24" id="star_purple500">
            <path
                d="m12 8.89.94 3.11h2.82l-2.27 1.62.93 3.01L12 14.79l-2.42 1.84.93-3.01L8.24 12h2.82L12 8.89M12 2l-2.42 8H2l6.17 4.41L5.83 22 12 17.31 18.18 22l-2.35-7.59L22 10h-7.58L12 2z" />
        </symbol>
        <symbol fill="currentColor" viewBox="0 0 24 24" id="star_rate">
            <path d="M14.43 10 12 2l-2.43 8H2l6.18 4.41L5.83 22 12 17.31 18.18 22l-2.35-7.59L22 10z" />
        </symbol>
        <symbol fill="currentColor" viewBox="0 0 24 24" id="stars">
            <path
                d="M11.99 2C6.47 2 2 6.48 2 12s4.47 10 9.99 10C17.52 22 22 17.52 22 12S17.52 2 11.99 2zm4.24 16L12 15.45 7.77 18l1.12-4.81-3.73-3.23 4.92-.42L12 5l1.92 4.53 4.92.42-3.73 3.23L16.23 18z" />
        </symbol>
        <symbol fill="currentColor" viewBox="0 0 24 24" id="stop">
            <path d="M6 6h12v12H6z" />
        </symbol>
        <symbol fill="currentColor" viewBox="0 0 24 24" id="stop_circle">
            <path
                d="M12 2C6.48 2 2 6.48 2 12s4.48 10 10 10 10-4.48 10-10S17.52 2 12 2zm4 14H8V8h8v8z" />
        </symbol>
        <symbol fill="currentColor" viewBox="0 0 24 24" id="stop_screen_share">
            <path
                d="m21.22 18.02 2 2H24v-2h-2.78zm.77-2 .01-10a2 2 0 0 0-2-2H7.22l5.23 5.23c.18-.04.36-.07.55-.1V7.02l4 3.73-1.58 1.47 5.54 5.54c.61-.33 1.03-.99 1.03-1.74zM2.39 1.73 1.11 3l1.54 1.54c-.4.36-.65.89-.65 1.48v10a2 2 0 0 0 2 2H0v2h18.13l2.71 2.71 1.27-1.27L2.39 1.73zM7 15.02c.31-1.48.92-2.95 2.07-4.06l1.59 1.59c-1.54.38-2.7 1.18-3.66 2.47z" />
        </symbol>
        <symbol fill="currentColor" viewBox="0 0 24 24" id="subject">
            <path d="M14 17H4v2h10v-2zm6-8H4v2h16V9zM4 15h16v-2H4v2zM4 5v2h16V5H4z" />
        </symbol>
        <symbol fill="currentColor" viewBox="0 0 24 24" id="table_bar">
            <path
                d="M22 7.5C22 5.57 17.52 4 12 4S2 5.57 2 7.5c0 1.81 3.95 3.31 9 3.48V15H9.35c-.82 0-1.55.5-1.86 1.26L6 20h2l1.2-3h5.6l1.2 3h2l-1.5-3.74c-.3-.76-1.04-1.26-1.85-1.26H13v-4.02c5.05-.17 9-1.67 9-3.48z" />
        </symbol>
        <symbol fill="currentColor" viewBox="0 0 24 24" id="table_chart">
            <path
                d="M10 10.02h5V21h-5zM17 21h3c1.1 0 2-.9 2-2v-9h-5v11zm3-18H5c-1.1 0-2 .9-2 2v3h19V5c0-1.1-.9-2-2-2zM3 19c0 1.1.9 2 2 2h3V10H3v9z" />
        </symbol>
        <symbol fill="currentColor" viewBox="0 0 24 24" id="table_restaurant">
            <path
                d="m21.96 9.73-1.43-5a.996.996 0 0 0-.96-.73H4.43c-.45 0-.84.3-.96.73l-1.43 5c-.18.63.3 1.27.96 1.27h2.2L4 20h2l.67-5h10.67l.66 5h2l-1.2-9H21c.66 0 1.14-.64.96-1.27zM6.93 13l.27-2h9.6l.27 2H6.93z" />
        </symbol>
        <symbol fill="currentColor" viewBox="0 0 24 24" id="table_rows">
            <path d="M21 8H3V4h18v4zm0 2H3v4h18v-4zm0 6H3v4h18v-4z" />
        </symbol>
        <symbol fill="currentColor" viewBox="0 0 24 24" id="table_view">
            <path
                d="M19 7H9c-1.1 0-2 .9-2 2v10c0 1.1.9 2 2 2h10c1.1 0 2-.9 2-2V9c0-1.1-.9-2-2-2zm0 2v2H9V9h10zm-6 6v-2h2v2h-2zm2 2v2h-2v-2h2zm-4-2H9v-2h2v2zm6-2h2v2h-2v-2zm-8 4h2v2H9v-2zm8 2v-2h2v2h-2zM6 17H5c-1.1 0-2-.9-2-2V5c0-1.1.9-2 2-2h10c1.1 0 2 .9 2 2v1h-2V5H5v10h1v2z" />
        </symbol>
        <symbol fill="currentColor" viewBox="0 0 24 24" id="tablet_android">
            <path
                d="M18 0H6C4.34 0 3 1.34 3 3v18c0 1.66 1.34 3 3 3h12c1.66 0 3-1.34 3-3V3c0-1.66-1.34-3-3-3zm-4 22h-4v-1h4v1zm5.25-3H4.75V3h14.5v16z" />
        </symbol>
        <symbol fill="currentColor" viewBox="0 0 24 24" id="tablet_mac">
            <path
                d="M18.5 0h-14A2.5 2.5 0 0 0 2 2.5v19A2.5 2.5 0 0 0 4.5 24h14a2.5 2.5 0 0 0 2.5-2.5v-19A2.5 2.5 0 0 0 18.5 0zm-7 23c-.83 0-1.5-.67-1.5-1.5s.67-1.5 1.5-1.5 1.5.67 1.5 1.5-.67 1.5-1.5 1.5zm7.5-4H4V3h15v16z" />
        </symbol>
        <symbol fill="currentColor" viewBox="0 0 24 24" id="text_decrease">
            <path
                d="M.99 19h2.42l1.27-3.58h5.65L11.59 19h2.42L8.75 5h-2.5L.99 19zm4.42-5.61L7.44 7.6h.12l2.03 5.79H5.41zM23 11v2h-8v-2h8z" />
        </symbol>
        <symbol fill="currentColor" viewBox="0 0 24 24" id="text_fields">
            <path d="M2.5 4v3h5v12h3V7h5V4h-13zm19 5h-9v3h3v7h3v-7h3V9z" />
        </symbol>
        <symbol fill="currentColor" viewBox="0 0 24 24" id="text_format">
            <path
                d="M5 17v2h14v-2H5zm4.5-4.2h5l.9 2.2h2.1L12.75 4h-1.5L6.5 15h2.1l.9-2.2zM12 5.98 13.87 11h-3.74L12 5.98z" />
        </symbol>
        <symbol fill="currentColor" viewBox="0 0 24 24" id="text_increase">
            <path
                d="M.99 19h2.42l1.27-3.58h5.65L11.59 19h2.42L8.75 5h-2.5L.99 19zm4.42-5.61L7.44 7.6h.12l2.03 5.79H5.41zM20 11h3v2h-3v3h-2v-3h-3v-2h3V8h2v3z" />
        </symbol>
        <symbol fill="currentColor" viewBox="0 0 24 24" id="text_rotate_up">
            <path
                d="M3 12v1.5l11 4.75v-2.1l-2.2-.9v-5l2.2-.9v-2.1L3 12zm7 2.62-5.02-1.87L10 10.88v3.74zm8-10.37-3 3h2v12.5h2V7.25h2l-3-3z" />
        </symbol>
        <symbol fill="currentColor" viewBox="0 0 24 24" id="text_rotate_vertical">
            <path
                d="M15.75 5h-1.5L9.5 16h2.1l.9-2.2h5l.9 2.2h2.1L15.75 5zm-2.62 7L15 6.98 16.87 12h-3.74zM6 19.75l3-3H7V4.25H5v12.5H3l3 3z" />
        </symbol>
        <symbol fill="currentColor" viewBox="0 0 24 24" id="text_rotation_angledown">
            <path
                d="m19.4 4.91-1.06-1.06L7.2 8.27l1.48 1.48 2.19-.92 3.54 3.54-.92 2.19 1.48 1.48L19.4 4.91zm-6.81 3.1 4.87-2.23-2.23 4.87-2.64-2.64zM14.27 21v-4.24l-1.41 1.41-8.84-8.84-1.42 1.42 8.84 8.84L10.03 21h4.24z" />
        </symbol>
        <symbol fill="currentColor" viewBox="0 0 24 24" id="text_rotation_angleup">
            <path
                d="M4.49 4.21 3.43 5.27 7.85 16.4l1.48-1.48-.92-2.19 3.54-3.54 2.19.92 1.48-1.48L4.49 4.21zm3.09 6.8L5.36 6.14l4.87 2.23-2.65 2.64zm12.99-1.68h-4.24l1.41 1.41-8.84 8.84L10.32 21l8.84-8.84 1.41 1.41V9.33z" />
        </symbol>
        <symbol fill="currentColor" viewBox="0 0 24 24" id="text_rotation_down">
            <path
                d="M21 12v-1.5L10 5.75v2.1l2.2.9v5l-2.2.9v2.1L21 12zm-7-2.62 5.02 1.87L14 13.12V9.38zM6 19.75l3-3H7V4.25H5v12.5H3l3 3z" />
        </symbol>
        <symbol fill="currentColor" viewBox="0 0 24 24" id="text_rotation_none">
            <path
                d="M12.75 3h-1.5L6.5 14h2.1l.9-2.2h5l.9 2.2h2.1L12.75 3zm-2.62 7L12 4.98 13.87 10h-3.74zm10.37 8-3-3v2H5v2h12.5v2l3-3z" />
        </symbol>
        <symbol fill="currentColor" viewBox="0 0 24 24" id="text_snippet">
            <path
                d="m20.41 8.41-4.83-4.83c-.37-.37-.88-.58-1.41-.58H5c-1.1 0-2 .9-2 2v14c0 1.1.9 2 2 2h14c1.1 0 2-.9 2-2V9.83c0-.53-.21-1.04-.59-1.42zM7 7h7v2H7V7zm10 10H7v-2h10v2zm0-4H7v-2h10v2z" />
        </symbol>
        <symbol fill="currentColor" viewBox="0 0 24 24" id="timer">
            <path
                d="M15 1H9v2h6V1zm-4 13h2V8h-2v6zm8.03-6.61 1.42-1.42c-.43-.51-.9-.99-1.41-1.41l-1.42 1.42A8.962 8.962 0 0 0 12 4c-4.97 0-9 4.03-9 9s4.02 9 9 9a8.994 8.994 0 0 0 7.03-14.61zM12 20c-3.87 0-7-3.13-7-7s3.13-7 7-7 7 3.13 7 7-3.13 7-7 7z" />
        </symbol>
        <symbol fill="currentColor" viewBox="0 0 24 24" id="title">
            <path d="M5 4v3h5.5v12h3V7H19V4H5z" />
        </symbol>
        <symbol fill="currentColor" viewBox="0 0 24 24" id="toc">
            <path
                d="M3 9h14V7H3v2zm0 4h14v-2H3v2zm0 4h14v-2H3v2zm16 0h2v-2h-2v2zm0-10v2h2V7h-2zm0 6h2v-2h-2v2z" />
        </symbol>
    </defs>
</svg>
